<?xml version="1.0" encoding="UTF-8"?>
<!DOCTYPE svg PUBLIC "-//W3C//DTD SVG 1.1//EN" "http://www.w3.org/Graphics/SVG/1.1/DTD/svg11.dtd">
<!-- Creator: CorelDRAW 2019 (64-Bit) -->
<svg xmlns="http://www.w3.org/2000/svg" xml:space="preserve" width="65mm" height="65mm" version="1.1" style="shape-rendering:geometricPrecision; text-rendering:geometricPrecision; image-rendering:optimizeQuality; fill-rule:evenodd; clip-rule:evenodd"
viewBox="0 0 6500 6500"
 xmlns:xlink="http://www.w3.org/1999/xlink"
 xmlns:xodm="http://www.corel.com/coreldraw/odm/2003">
 <defs>
  <style type="text/css">
   <![CDATA[
    .fil0 {fill:#373435}
   ]]>
  </style>
 </defs>
 <g id="Layer_x0020_1">
  <metadata id="CorelCorpID_0Corel-Layer"/>
  <path class="fil0" d="M3097.87 4865.71l-1318.57 -45.64c5.09,-28.11 297.04,-608.87 344.21,-680.97 297.37,-49.27 976.17,4.87 1309.18,16.24 -31.24,239.89 -254.84,520.25 -334.82,710.37zm-942.1 -3233.92c-5.21,-140.18 -1.64,-50.02 28.21,-83.15 70.45,184.54 232.87,201.63 422.89,174.98 235.36,-33.02 205.72,-133.68 290.2,-304.53 131.27,4.73 147.03,10.35 215.37,79.53 -8.46,179.74 -224.5,337.99 -423.24,361.1 -236.5,27.51 -470.43,-84.05 -533.43,-227.93zm391.07 1023.32l37.19 -170.04 634.89 7.39 707.7 2.76 -130.38 558.94c-170.09,44.02 -1122.14,59.4 -1323.34,40.68l73.94 -439.73zm3281.63 3205.35c-209.46,-17.44 -814.24,68.97 -1072.3,91.15 -588.21,50.55 -2106.39,14.94 -2832.21,23.54 -394.53,4.67 -445.09,-35.14 -468.01,109.45 38.67,43.24 -6.46,13.02 53.48,40.31 38,17.31 29.71,12.88 71.4,19.19l2224.41 29.54c511.44,-0.54 1185.83,-39.47 1705.05,-96.53 204.48,-22.47 414.18,9.62 318.18,-216.65l149.64 -0.55c24.12,-84.79 60.01,-186.02 50.9,-280.71 -63.81,-663.07 -15.96,-3041.6 29.79,-3684.18 28.47,-399.97 47.66,-867.02 -91.7,-1221.17 -210.41,-11.42 -222.09,13.05 -309.1,128.56 -210.79,21.67 -612.79,84.98 -824.42,53.4 -246.43,-36.76 -47.5,-435.11 -307.59,-795.44l-326.7 13.88c-152.82,46.46 -139.32,152.81 -149.47,379.95 -7.11,159.16 -14.64,326.36 -31.9,484.33 -202.1,88.21 -868.07,72.67 -1118.24,65.79 -126.6,-622.02 -88.8,-836.84 -609.08,-759.04 -258.98,38.67 -162.28,305.37 -161.98,566.08 0.47,395.28 38.72,302.82 -86.14,489.58 -336.19,502.87 298.59,836.49 759.91,732.36 174.84,-39.46 260.14,-111.89 360.54,-211.01 443.82,-438.21 -198.56,-604.2 -232.59,-623.94l1081.1 -43.83c-60.6,216.24 -337.68,374.75 -237.1,684.74 142.74,439.94 1172.38,298.21 1241.16,-156.19 62.63,-413.78 -247.97,-344.7 -253.12,-621.48l908.61 -57.74 -66.88 1259.21c-240.16,-40.31 -694.46,15.95 -971.26,21.75 -529.22,11.08 -2887.93,40.53 -3119.46,-37.53l-16.64 -1058.81c432.49,2.42 604.99,41.42 576.3,-187.04 -155.7,-42.01 -597.73,-12.74 -762.59,51.09 -83.45,393.62 164.55,1084.03 -193.97,2115.61 -215.2,619.18 -702.89,1420.3 -753.45,1589.02 -115.24,-13.79 -351.59,-36.79 -216.86,133.66 86.89,109.93 811.52,95.13 989.72,155.71 11.27,249.25 2.76,547.77 63.57,762.5 321.94,86.51 1924.42,11.16 2378.45,-10.5 588.65,-28.09 1415.81,5.17 1853.51,-22.11 184.63,-11.51 369.25,-177.01 397.04,84.05zm-4087.09 537.68c39.95,27.34 11.49,15.26 71.45,30.85 127.49,33.17 2264.2,-14.76 2391.33,-16.59 401.95,-5.78 825.02,-12.85 1222.01,-45.53 1226.67,-100.98 879.74,-91.85 872.24,-909.31 -1.92,-209.34 -3.68,-417.81 2.98,-627.13 12.89,-405.48 39.79,-804.02 53.31,-1210.56 14.1,-424.24 76.48,-2172.96 -1.14,-2451.41 -235.81,-58.93 -160.11,244.12 -160.65,469.52l-116.35 4466.12c-793.17,136.11 -2409.41,129.14 -3325.8,143.41 -189.81,2.96 -380.64,2.25 -570.26,8.33 -342.6,10.99 -420.73,-25.1 -439.12,142.3zm-216.46 -1558.43l-769.67 -18.05c-91.35,-6.65 -137.77,-9.61 -191.9,-48.24 103.15,-230.42 298.55,-497.85 382.93,-716.05 371.32,50.11 558.95,67.45 951.42,80.18 -45.29,150.98 -290.54,600.36 -372.78,702.16zm-469.22 -965.27c6.63,-68.53 199.48,-553.44 241.06,-617.7l915.18 35.93 -232.18 649.57c-289.6,5.28 -660.42,24.08 -924.06,-67.8zm2892.07 -607.18c195.74,-53.09 1199.36,-65.36 1451.81,-44.67l-254.87 667.2c-165.19,54.96 -1209.02,97.23 -1415.21,65.24l218.27 -687.77zm1631.73 -843.41c-19.99,151.73 -75.03,474.81 -138.9,590.47l-1442.5 39.55 120.18 -557.49 1461.22 -72.53zm231.73 3101.38c-979.61,91.46 -1352.81,32.57 -2199.59,77.38 -315.06,16.68 -2088.42,100.44 -2237.25,29.71l-55.46 -604.6c1115.26,-12.13 2051.95,55.07 3142.25,92.62 229.71,7.91 288.88,16.2 385.38,-160.92 299.56,-549.75 633.52,-1290.81 800.61,-1909.09 189.12,-699.75 126.95,-1245.83 225.49,-1938.8l-53.16 3291.34c-0.2,309.75 31.24,839.46 -8.27,1122.36zm-1806.46 -3966.1c55.94,65.69 53.44,121.87 143.59,191.87 43.29,33.61 478.16,203.98 629.53,-196.26 25.58,-67.65 8.72,-30.42 37.78,-64.59l12.21 186.05c-253.36,251.13 -598.36,348.24 -876.62,114.01 -5.47,-119.83 -10.98,-138.04 53.51,-231.08zm-1614.17 -1114.99c336.21,-225.29 382.45,973.61 238.04,1072.57 -95.74,65.61 -233.09,38.88 -274.23,-51.21 -32.99,-72.26 -57.23,-800.11 -35.9,-912.32 29.37,-154.56 -8.1,-55.3 72.09,-109.04zm1870.26 1140.28c-76.74,-77.78 -65.79,-149.17 -60.2,-316.72 6.85,-205.59 2.36,-956.88 82.65,-1009.14 201.17,-130.95 219.85,302.01 240,433.16 80.83,526.09 63.54,381.79 -22.63,575.7 82.42,126.98 117.51,73.01 67.16,306.54 -106.86,47.48 -211.05,69.25 -306.98,10.46z"/>
 </g>
</svg>
