<?xml version="1.0" encoding="UTF-8"?>
<!DOCTYPE svg PUBLIC "-//W3C//DTD SVG 1.1//EN" "http://www.w3.org/Graphics/SVG/1.1/DTD/svg11.dtd">
<!-- Creator: CorelDRAW 2019 (64-Bit) -->
<svg xmlns="http://www.w3.org/2000/svg" xml:space="preserve" width="68mm" height="52mm" version="1.1" style="shape-rendering:geometricPrecision; text-rendering:geometricPrecision; image-rendering:optimizeQuality; fill-rule:evenodd; clip-rule:evenodd"
viewBox="0 0 6800 5200"
 xmlns:xlink="http://www.w3.org/1999/xlink"
 xmlns:xodm="http://www.corel.com/coreldraw/odm/2003">
 <defs>
  <style type="text/css">
   <![CDATA[
    .fil0 {fill:#FEFEFE}
   ]]>
  </style>
 </defs>
 <g id="Layer_x0020_1">
  <metadata id="CorelCorpID_0Corel-Layer"/>
  <g id="_5602467248">
   <path class="fil0" d="M754.99 3378.13c54.24,17.97 351.24,346.33 1171.96,346.35 344.81,0 765.34,-73.66 1053.53,-266.58 35.96,-24.08 86.11,-69.74 118.04,-81.27 21.43,66.73 55.46,111.21 26.26,198.99 -51.1,153.64 -235.02,261.25 -384.54,328.37 -516.13,231.65 -1517.65,207.75 -1912.34,-180.63 -36.74,-36.17 -74.17,-80.49 -96.5,-141.21 -33.75,-91.77 0.1,-133.4 23.59,-204.02zm695.28 -30.43c-185.31,-38.75 -360.5,-100.63 -498.34,-188.34 -114.09,-72.59 -306.9,-224.02 -201.85,-426.45 80.55,22.85 157.78,46.07 247.86,64.22 172.88,34.86 74.65,7.16 186.73,120.67 91.64,92.84 235.66,176.46 390.57,234.19 155.26,57.86 328.55,97.14 508.73,116.56 323.18,34.84 420.22,-7.29 580.4,1.76 -386.11,127.27 -787.21,166.64 -1214.1,77.39zm202.79 -510.12c380.46,-47.28 942.59,-143.71 1115.64,-498.04 14.78,-30.26 18.85,-78.23 39.34,-101.44 2.54,-2.86 163.65,-92.63 184.34,-105.98 33.9,-21.87 54.84,-40.45 84.48,-65.11 28.11,-23.4 44.7,-49.61 73.36,-69.12 134.78,35.08 320.49,176.41 375.58,259.52 124.82,188.36 -12.5,333.61 -121.62,418.47 -223.76,173.99 -635.2,278.25 -993.2,278.25 -204.35,0 -601.4,-30.76 -757.92,-116.55zm-210.14 -323.47c-346.64,0.07 -724.55,-91.98 -957.51,-252.36 -366.84,-252.57 -200.49,-494.45 117.36,-663 16.51,81.58 -7.65,153.3 19.59,244.62 51.75,173.53 230.71,302.26 401.31,381.82 410.69,191.54 768.01,190.74 1200.21,165.1 -290.94,92.38 -451.26,123.76 -780.96,123.82zm265.52 -1529.38c510,-51.26 1127.83,77.63 1363.25,371.59 186.04,232.3 -74,440.07 -236.22,522.04 -209.79,106.01 -422.29,161.14 -685.16,186.01 -514.76,48.7 -1130.49,-76.91 -1368,-372.34 -186.55,-232.06 74.42,-441.05 236.04,-522 221.03,-110.72 415.77,-157.72 690.09,-185.3zm1833.87 1110.57c-33.95,-16.7 -45.72,-32.91 -78.47,-57.51 -95.13,-71.45 -223.76,-121.55 -249.72,-143.93 37.1,-147.17 63.74,-407.39 -16.52,-549.14 -68.07,-120.2 -197.63,-216.75 -337.73,-286.95 -327.17,-163.93 -663.03,-192.89 -1070.28,-191.32 -27.24,7.5 -159.88,14.24 -209.38,20.96 -72.55,9.85 -140.29,22.34 -208.21,37.96 -224.95,51.77 -511.66,164.62 -652.82,332.83 -145.49,173.35 -61.98,191.06 -139.78,229.5 -29.53,14.59 -57.94,27.42 -82.66,40.91 -324.73,177.28 -338.73,353.06 -329.72,656.04 9.99,335.94 424.51,467.44 472.49,510.05 -37.48,127.33 -32.33,164.84 -32.66,308.02 -0.4,168.82 17.39,159.58 73.78,281.61 -41.68,90.44 -72.8,109.22 -73.91,237.45 -2.42,279.4 -15.72,432.13 307.38,625.73 526.22,315.33 1499.59,315.62 2025.72,0.01 322.7,-193.57 309.75,-346.02 307.35,-625.74 -0.8,-94.08 -29.07,-178.29 -77.86,-235.42 10.84,-30.45 24.35,-43.34 40.15,-74.71 12.26,-24.37 21.27,-65.48 31.02,-83.48 24.72,-45.62 262.18,-101.49 386.87,-308.39 81.2,-134.75 89.07,-452.61 13.32,-589.22 -36.94,-66.62 -88.69,-110.13 -98.36,-135.26z"/>
   <path class="fil0" d="M1451.99 1958.29c-0.85,4.58 2.94,7.45 7.3,7.39 99.91,-0.01 199.83,-0.09 299.74,-0.01 14.06,0.01 27.89,3.81 31.31,-9.73l0.31 -304.78c0.23,-16.7 2.65,-22.06 -15.22,-23.09 -54.48,-3.15 -283.35,-2.07 -314.07,-0.66 -13.67,4.06 -9.52,18.04 -9.51,33.04l0.14 297.84zm22.01 -15.18l0.73 -293.39 293.14 0.54 0.17 291.08c-8.92,2.55 -280.69,-0.02 -294.04,1.77z"/>
   <path class="fil0" d="M1762.73 1062.88l4.91 0.5 0.23 292.71 -293.2 1.52 -0.67 -7.98 0.01 -286.38 286.87 -0.46 1.85 0.09zm-301.83 316.09c53.27,2.3 111.12,0.21 164.91,0.26 18.58,0.02 155.15,2.92 161.36,-3.31 7.43,-7.45 3.33,-64.07 3.33,-78.09 0.01,-76.96 2.44,-176.64 -0.26,-248.59 -4.62,-9.47 -10.42,-8.57 -34.91,-8.57l-125.82 0.02c-56.62,-0.01 -113.65,-0.67 -170.22,0.09 -5.51,-1.03 -7.9,1.9 -7.29,7.31l0.02 320.05c2.33,12.79 2.58,9.72 8.88,10.83z"/>
   <path class="fil0" d="M1948.26 1348.4l-0.85 7.86 -21.4 -0.23 -0.11 -24.9c-0.12,-10.93 -0.4,-18.39 -11.63,-19.7 -6.87,-0.81 -18.33,-0.05 -25.72,-0.1l-8.03 0.02c1.08,-37.39 4.14,-45.43 -19.64,-45.35 -15.5,0.06 -43.03,-5.31 -48.09,9.65l-0.13 125.69c-17.32,0.06 -54.23,-2.22 -75.78,0.14 -9.06,1 -14.69,-0.53 -15.36,7.63 -1.49,18.29 -2.08,41.4 3.35,57.95 28.89,8.93 98.19,-0.02 130.7,1.86 7,0.12 2.4,33.87 2.91,39.81 4.29,3.74 9.88,5.55 16,6.33 18.98,2.42 70.09,0.26 89.93,-0.91 5.29,0.67 7.22,-2.33 8.07,-4.42 0.04,-24.26 -1.05,-57.51 -1,-85.13 10.64,0.78 27.17,2.27 35.8,-0.85 5.78,-2.01 7.62,-4.74 8,-5.07 3.94,-27.29 0.99,-78.13 0.97,-107.89 0,-14.52 4.97,-40.83 -9.55,-44.17 -7.49,-1.71 -45.61,-1.21 -52.03,0.7 -9.86,7.8 -6.39,23.47 -6.39,37.92 0.01,14.38 0.02,28.77 -0.02,43.16zm-112.17 61.3l0.32 -120.6 20.67 0.41c-1.68,54.41 -1.03,41.89 42.59,44.75 11.96,7.08 -7.66,40.9 13.11,44.72 9.51,1.75 45.02,0.41 54.36,-1.09l4.2 -5.12 0.31 -83.37 20.97 -0.32c-0.02,10.69 0.19,111.22 -0.6,112.48 -7.9,-0.22 -16.08,-0.24 -23.99,-0.21 -11.46,0.05 -16.7,-0.3 -19.19,10.26 -4.55,19.29 0.77,57.81 -0.95,80.17l-67.72 0.18c0.9,-8.39 0.48,-17.29 0.53,-25.87 0.05,-8.95 -2.48,-19.41 -11.9,-19.45l-122.49 -0.48 -0.23 -21.51c10.06,0.4 77.92,2.43 80.76,-1.32 8.1,-2.05 9.24,-7.02 9.25,-13.63z"/>
   <path class="fil0" d="M2038.72 1049.93c-2.78,70.2 -0.25,170.37 -0.25,246.06 0,6.72 -1.61,70.87 1.38,76.16 1.66,2.95 2.12,5.38 5.6,4.72 5.97,4.28 287.86,3.83 321.34,2.05 8.34,-2.02 9.79,-5.16 10.27,-14.47l-0.8 -323.57 -293.41 -0.23c-13.03,0 -40.84,-3.24 -44.13,9.28zm316.32 298.55l0.03 7.9 -2.6 0.32 -290.93 -0.37 -0.55 -292.86 293.85 -0.5 0.13 160.85 0.07 124.66z"/>
   <path class="fil0" d="M1654.35 1470.55l23.14 -0.84c-0.52,14.85 -1.92,32.21 3.45,42.95 6.57,1.73 14.67,2.1 22.59,1.93 22.45,-0.48 18.49,-1.85 19.06,5.24l-0.11 61.39 -21.92 -0.09c0.56,-5.97 2.21,-32.4 -0.97,-34.85 -5.25,-14.66 -26.39,-9.19 -42.35,-9.26 -13.75,-0.06 -18.4,-2.47 -24.49,7.22l-1.57 36.79 -156.1 0.38 -0.09 -66.54 20.6 -0.14c-0.9,23.77 0.44,22.41 3.34,42.46 13.62,4.07 49.31,4.58 63.12,0.5 5.35,-11.58 2.72,-76.61 2.72,-95.19 -0.18,-10.54 0.1,-12.31 -7.47,-14.85 -8.25,-5 -67.76,-1.96 -82.48,-1.73l0.09 -21.14 112.39 0.67c-0.16,8.67 -1.21,73.54 0.92,82.1l1.6 4.66c12.44,0.72 34.96,2.75 49.71,2.35 9.62,-0.26 15.7,-7.96 15.69,-18.65 -0.02,-8.32 0.64,-17.42 -0.87,-25.36zm81.75 21.84c-5.22,-4.41 -26.83,-1.91 -34.98,-0.82 0.62,-6.86 -2.24,-30.04 -1.52,-36.09 0.32,-6.68 -2.95,-7.61 -6.73,-7.73l-54.1 -0.81c-6.57,0.35 -6.68,3.81 -6.73,19.17 -0.02,7.16 0.1,21.39 0.02,25.52l-22.03 -0.38 -0.8 -77.21c-0.07,-6.66 0.93,-7.27 -4.98,-10.97 -10.28,-3.36 -126.67,-2.22 -144.96,-1.24 -12.59,9.55 -11.06,62.37 -0.46,66.52 8.86,3.46 67.01,-0.53 83.22,1.63l-0.06 66.5c-2.22,0.3 -7.89,0.91 -10.45,0.86 -6.95,-0.24 -11.71,0.08 -12,-4.54 0.07,-15.09 3.44,-31.14 -6.22,-39.78 -9.02,-2.8 -34.61,-1.68 -49.19,-1.2 -13.88,0.46 -12.4,12.04 -12.32,22.43l0.03 66.66c-0.09,11.91 -1.95,19.89 9.06,23.63l183.42 -0.08c7.67,-2.07 8.38,-8.39 9.24,-16.35 0.94,-8.74 1.61,-19.47 1.44,-28.7l22.52 0.49c-0.32,8.64 -0.12,19.2 0.71,27.92 0.89,9.21 2.68,16.38 12.23,17.12 10.28,0.8 27.36,1.07 40.18,-0.31 15.59,-1.69 13.34,-2.56 14.86,-18.33 2.95,-30.74 3.38,-89.65 -9.4,-93.91z"/>
   <path class="fil0" d="M1924.77 1237.47l1.15 -83.73 22.26 -0.31 1.23 83.93c3.59,8.65 14.25,6.62 26.11,6.56 6.77,-0.03 27.3,0.8 32.41,-0.82 14.69,-4.69 8.3,-43.74 8.29,-58.12 -0.01,-44.96 0.41,-90.11 -0.11,-135.04 -1.22,-3.58 -3.79,-6.34 -6.85,-7.95 -5.02,-2.62 -43.14,-1.83 -48.65,-1.36 -18.17,1.55 -12.31,28.05 -12.32,45.24l-23.56 -0.48c2.03,-9.23 1.62,-20.37 1.19,-30.05 -0.86,-19.7 -13.24,-14.43 -44.79,-14.7 -17.45,1.2 -22.8,-1.24 -22.41,13.59l-0.88 75.86c-13.99,2.61 -28.68,-1.12 -41.84,2.87 -6.33,12.68 -3.65,36.14 -3.24,52.03 1.42,9.84 3.97,12.68 11.12,14.06 8.72,1.68 22.93,0.62 33.41,-0.01l0.5 38.43c0.21,-0.16 -0.87,5.02 5.69,6.43 11.64,2.5 54.37,2.32 61.29,-6.43zm44.74 -136.59c5.55,-2.61 2.29,-30.47 2.15,-37.33l0.17 -0.01 21.08 0.14 -0.37 156.54 -20.73 -0.16c0.45,-15.17 2.75,-72.26 -1.59,-81.87 -4.93,-7.03 -1.69,-4.7 -9.49,-7.03 -12.26,-1.61 -43.46,-1.42 -54.31,1.57 -9.33,18.08 0.53,64.02 -4.1,88.16l-20.49 0.05c-3.43,-11.51 3.56,-33.81 -4.22,-41.62 -6.49,-6.53 -31.54,-2.05 -41.86,-4.18l0.04 -20.95c27.6,-4.41 45.14,11.53 44.86,-22.8 -0.16,-19.09 -1.8,-50.23 0.53,-68.02l21.53 0.13c1.53,15.93 -5.09,39.77 8.77,42.98 5.56,4.26 22.16,1.83 30.74,1.85 13.77,0.03 23.3,2.79 27.29,-7.45z"/>
   <path class="fil0" d="M2219.14 1776.35l-0.03 91.29 0.36 1.85c9.05,8.46 11,6.24 24.35,6.13 11.72,-0.1 23.43,0.07 35.16,-0.15 11.98,-6.84 7.97,-17.26 7.95,-44.5 15.12,-2.07 26.69,0.54 34.33,-0.48 10.08,-1.33 10.44,-8.84 10.51,-16.74 0.08,-9.44 -0.07,-23.62 1.44,-28.31l36.43 -0.2c6.1,-3.54 4.79,-1.51 7.09,-8.86l0.31 -42.97c0.05,-6.84 -1.75,-11.22 -7.4,-15.74 -24.6,-1.34 -51.03,-0.31 -75.86,-0.43 -12.8,-0.07 -25.99,-2.68 -28.98,8.51 -1.57,5.88 -0.62,28.9 -0.61,36.57l-29.94 0.65c-11.61,0.25 -15.1,0.02 -15.11,13.38zm89.42 -0.83c-1.61,9.18 -0.16,27.62 -0.08,31.93 -6.32,-0.22 -32.4,1.69 -35.96,1.62 -9.24,1.64 -8.45,5.86 -8.43,17.8 0.01,8.64 0.14,17.25 -0.01,25.94l-22.38 0.06 0.49 -67.54c7.52,-1.78 32.44,-1.74 39.45,-1.78 7.35,-8.21 3.23,-28.7 5.37,-41.7l6.77 -1.52 60.04 0.3 0.52 21.27c-13.02,1.71 -29.85,-1.53 -36.93,2.55 -6.83,0.53 -7.5,3.31 -8.85,11.07z"/>
   <path class="fil0" d="M1821.28 1809c-10.44,1.65 -8.8,11.41 -8.68,21.59l0.28 125.85 1.46 1.87c5.76,12.19 58.21,11.88 64.74,0 4.52,-5.88 0.76,-67.01 1.8,-79.57 0.15,-1.14 0.51,-3.9 5.83,-3.17l73.54 -0.01c9.04,-1.85 8.89,-1.88 10.23,-6.07 1.2,-17.84 0.48,-37.45 0.5,-55.5 0.02,-9.25 -0.02,-18.5 0.07,-27.75 0.15,-13.87 2.42,-18.49 -8.47,-22.65 -2.86,-3.01 -45.54,-1.11 -53.67,-1.11 -9.89,-0.01 -19.78,0.01 -29.67,-0.06 -13.85,-0.09 -21.47,0.28 -22.9,16.09 -0.85,9.4 0.84,23.57 1.08,28.91 -6.84,-0.39 -32.92,-2.08 -36.14,1.58zm36.51 54.7c-0.5,15.26 -0.92,66.48 -0.45,79.1l-21.4 -0.03 0.83 -112.45 37.73 -0.47c4.37,-0.4 8.34,-5.83 7.3,-8.01l-1.89 -36.63 68.44 0.07 -0.09 67.67 -83.63 2.37c-6.58,-0.1 -6.63,1.76 -6.84,8.38z"/>
   <path class="fil0" d="M1993.23 1502.64l0.24 94.89c7.7,8.97 9.02,7.56 24.59,7.44 11.75,-0.08 23.43,0.14 35.17,-0.34l5.78 -2.3c5.31,-19.99 2.52,-67.66 2.47,-91.75 -0.25,-13.11 0.24,-12.02 -6.4,-18.21 -11.66,-0.96 -23.43,-0.53 -35.15,-0.61 -9.88,-0.06 -26.73,-2.74 -26.7,10.88zm45.78 79.28l-22.07 0.02 -0.67 -67.24 21.92 -0.11 0.19 5.26 0.63 62.07z"/>
   <path class="fil0" d="M1906.44 1901.65c-6.18,7.4 -3.75,54.5 -2.13,57.56 2.7,5.07 4.12,4.51 10.41,5.77 12.82,2.58 43.34,0.74 51.55,0.74 30.94,-0.01 45.98,4.72 49.56,-10.65 1.57,-15.37 1.9,-43.05 -2.36,-55.08 -9.65,-2.51 -96.54,-4.37 -101.95,-0.07l-5.08 1.73zm19.46 20.44l67.22 -0.9c-0.25,8.18 0.74,14.11 -1.55,21.75l-65.56 -0.19 -0.11 -20.66z"/>
   <path class="fil0" d="M2128.54 1424.88l-66.65 0.43 0.32 20.56c3.83,-0.33 18.65,-0.3 28.19,0.65 9.67,0.96 14.71,1.22 14.83,13.33 0.1,10.89 0.02,19.61 0.67,32.15l5.63 -0.22 17.17 -0.13c1.79,-6.41 0.31,-66.34 -0.16,-66.77zm-32.73 89.68l48.09 -0.21c6.77,-5.19 7.48,-3.7 7.78,-16.58 0.2,-8.49 -0.08,-17.47 -0.08,-26.03 0.01,-17.26 0.11,-34.55 0,-51.8 -0.03,-10.47 0.21,-13.28 -7.68,-16.91 -2.16,-3.19 -68.49,-2.26 -91.54,-1.47 -7.41,0.25 -9.35,0.86 -12.41,8.99 -4.72,12.49 -1.38,30.83 -0.46,43.49 0.76,10.31 3.04,13.93 13.34,15.42 9.54,1.38 24.8,-0.12 30.73,-0.27l0.94 38.22c3.39,4.46 4.57,6.46 11.29,7.15z"/>
   <path class="fil0" d="M2045.2 1963.41c1.74,1.11 1.13,1.07 4.53,1.82l85.06 0.55c21.56,-0.31 17.2,-12.92 16.89,-50.14 -0.1,-12.22 -0.84,-14.38 -7.76,-16.24 -6.75,-3.82 -29.24,-1.9 -37.14,-1.7l-0.14 -30.37c-0.39,-7 -1.38,-11.34 -9.07,-12.8 -4.35,-0.83 -11.47,-1.71 -23.98,-1.7 -10.97,0 -34.12,-3.07 -34.94,10.65 -1.29,15.87 -0.26,35.9 -0.24,52.27 0.02,12.72 -4.69,44.97 6.79,47.66zm42.76 -40.79l2.3 0.04 37.62 -0.58 0.2 20.16 -65.67 0.19 -1.49 -37.95 -0.6 -28.35 23.77 -0.86c3.2,4.2 -0.23,44.04 3.87,47.35z"/>
   <path class="fil0" d="M2279.35 1694.62l86.5 -0.49c8.11,-0.05 10.98,-4.68 11.13,-12.21 0.14,-7.77 0.06,-15.53 0.08,-23.33 0.04,-11.95 3.7,-27.25 -9.57,-31.15 -26.24,-1.39 -62.29,-1.41 -88.64,-0.4 -19.4,0.74 -15.67,17.65 -14.78,52.05 0.32,12.71 4.07,15.59 15.28,15.53zm75.5 -22.16l-67.65 0.17c-2.13,-6.99 -2.37,-15.37 -1.11,-22.65l68.13 -0.39 0.63 22.87z"/>
   <path class="fil0" d="M2330.89 1914.91c5.83,-9.47 2.98,-27.13 2.81,-38.69l20.01 -0.26 0.31 66.53 -66.56 -0.02 -0.13 -20.08c6.6,0.05 29.57,1.13 35.29,-1.11 3.89,-1.27 3.8,-0.77 8.27,-6.37zm-38.96 50.83l77.71 -0.22c3.92,2.18 8.09,-1.72 7.59,-7.23 0.29,-16.63 -0.17,-33.3 -0.16,-49.94 0.01,-8.01 -0.01,-16.04 0.02,-24.05 0.02,-4.22 0.25,-8.93 0.17,-13.05 -0.18,-8.87 -0.85,-12.94 -7.62,-18.22 -6.52,-0.16 -50.69,-1.94 -55.38,1.79 -10.49,8.32 -4.94,30.77 -4.8,43.27 -13.26,1.19 -46.75,-3.19 -44.89,8.73 -0.81,3.53 -0.42,12.26 -0.39,16.32 0.3,37.57 -7.93,42.82 27.75,42.6z"/>
   <path class="fil0" d="M2322.31 1491.52l31.27 -0.11 0.8 -21.98 -64.31 0.23 -4.35 0.39c-1.8,12.7 0.48,23.93 -1.35,34.82 -14.28,6.56 -68.26,2.37 -88.62,2.4l0.06 27.42c9.33,-0.19 62.58,0.6 79.01,2.08l8.45 2.9c4.81,6.76 3.8,20.7 3.62,41.62l22.64 1.08c-0.23,-13.28 -2.27,-51.69 -0.02,-73.3 1.44,-13.88 1.13,-13.01 12.8,-17.55zm52.26 -33.34l-0.17 54.33c-12.28,2.97 -28.17,2.3 -42.13,1.95l-1.29 81.74c-2.37,13.81 -40.97,9.37 -54.04,8.95 -4.94,-0.16 -7.29,-1.51 -12.56,-7.62l-0.02 -38c-25.24,-0.3 -47.4,-0.09 -76.6,0.12 -15.19,0.11 -14.18,-3.16 -15.26,-18.47 -1.26,-17.91 -1.23,-32.79 1.45,-50.57 14.74,-9.76 81.62,-4.23 86.52,-3.44l0.01 -3.7c0.04,-9.92 1.17,-19.25 0.52,-28.06 -0.43,-5.85 3.28,-9.41 11.28,-9.24 22.4,0.48 68.69,-1.23 89.58,0.09 9.83,0.62 12.74,0.96 12.71,11.92z"/>
   <path class="fil0" d="M2062.88 1770.91c-3.83,-7.82 -2.44,-3.75 -9.25,-6.63 -4.83,-3.9 -29.7,-1.73 -38.31,-2 1.67,-8.8 1.14,-18.81 1.02,-27.97 -0.15,-11.09 -0.9,-14.24 -10.58,-16.24 -3.38,-3.35 -150.38,-1.77 -169,-1.19l0.02 -156.07 19.94 0.3 -0.22 36.82c3.5,8.72 12.73,7.13 24.62,7.07 9.67,-0.06 20.27,0.39 29.78,0 24.19,-0.99 11.65,-25.14 15.74,-45.14l21.14 -1.16 0.38 68.48c-15.02,2 -74.51,-2.17 -82.38,0.05 -2.26,0.76 -5.13,3.42 -6.62,5.94 -2.73,5.01 -1.23,49.98 -0.29,55.02 3.51,2.78 10.04,7.11 20.37,6.53 36.64,-2.06 124.68,1.94 159.77,0.51 22.86,-0.92 19.28,0.3 21.05,-17.69 0.85,-8.68 1.99,-20.13 1.5,-27.28l26.74 0.32c-0.34,5.84 -1.92,20.16 -0.72,29.13 2.16,16.11 5.35,15.45 19.27,15.34 21.21,-2.28 47.11,3.4 44.65,-11.64l0.25 -33.1 21.21 -0.18 1.06 32.52 1.08 6.15c2.25,6.2 6.78,4.5 13.27,6.17 2.26,0.29 6.71,0.18 9.14,0.15 28.66,-0.3 19.11,-0.15 21.48,4.17l0.77 17.83 -84.97 0.01c-2.23,2.72 -4.79,3.4 -4.95,8.28 -0.72,22.17 -0.45,65.12 -1.2,81.31l-66.26 0.36 0.5 -36.17zm86.88 52.35l1.81 -3.7 0.05 -77.71c22.68,-1.37 49.32,0.79 66.79,-2.46 15.44,-2.88 23.46,-2.49 23.31,-25.28 -0.05,-7.41 0.84,-18.74 0,-26.69 -1.07,-10.11 -0.5,-12.74 -10.49,-14.62 -10.32,-1.94 -19.58,1.51 -31.82,-1.13l-4.17 -0.72c1.36,-9.43 0.49,-24.71 0.69,-35.09 0.14,-7.28 -1.02,-6.36 -8.5,-7.49 -15.14,-2.28 -45.3,-3.29 -53.77,0.61 -7.92,9.05 -5.41,28.61 -4.96,43.14l-23.03 0.24c0.86,-7.21 1.31,-22.06 -0.21,-31.19 -1.16,-6.99 2.68,-12.9 -5.05,-14.21 -6.47,-0.68 -49.19,-0.54 -53.92,0.85 -5.17,1.52 -5.37,6.74 -6.31,13.29 -1.45,10.04 -1.75,23.23 -1.68,31.07l-158.56 0.15 1.61 -22.91c14,-0.21 55.85,-1.19 71.76,0.69 19.2,0.14 16.61,-9.29 17.64,-19.41 2.52,-25.03 -0.43,-81.59 -2.45,-88.69 -3.21,-4.36 -2.03,-4.42 -9.69,-5.06 -9.85,-0.81 -48.61,-4.67 -51.3,4.84 -2.78,9.84 -0.69,33.47 -2.55,39.97 -11.35,0.51 -19.25,1.65 -24.01,-2.7 -0.52,-4.82 -0.35,-11.22 -0.28,-16.65 0.12,-10.93 2.08,-21.29 -8.77,-25.36 -14.32,0 -52.52,-5.65 -56.7,7.01 -4.78,5.99 -2.61,14.75 -2.56,22.04l0.24 164.64c2.43,8.55 8.6,9.38 18.55,9.57l150.39 -0.01 11.22 0.31c0.33,8.67 0.11,16.99 0.09,25.37 -0.05,13.67 -0.94,14.38 10.14,18.91 9.72,1.85 27.87,-3.7 34.77,3.21 0.8,5.94 -1.34,32.7 2.15,35.17 5.37,9.08 7.86,7.28 20.4,7.15 8.65,-0.09 17.3,-0.06 25.96,-0.07 18.5,-0.01 37,0.05 55.5,-0.08l1.87 -1.36c5.35,-2.45 3.18,-0.37 5.84,-5.64z"/>
   <path class="fil0" d="M1518.99 1311.36l0.35 -202.57 197.22 -0.13c6.66,1.68 1.93,-1.64 5.46,4.16l-0.09 198.3 -197.9 0.2 -5.04 0.04zm226.21 14.94c1.93,-69.52 2.76,-146.31 0.75,-215.98 -0.31,-10.82 -1.71,-20.45 -5.91,-22.82 -4.39,-2.46 -233.95,-4.4 -239.84,1.5 -6.1,6.12 -3.12,101.11 -3.12,118.18 0,15.25 -1.44,114.25 1.09,120.41 4.76,11.57 39.56,6.48 53.62,6.5 59.33,0.03 127.9,1.44 185.23,-0.12l8.16 -0.14 0.02 -7.53z"/>
   <path class="fil0" d="M2083.74 1326.3l0.81 -231.98c2.63,-7.2 5.15,-7.71 5.38,-7.93 35.27,-3.42 85.55,-0.53 122.44,-0.53 18.68,0 110.9,-4.31 117.2,4.1 4.35,5.83 2.98,233.09 0.93,235.96 -1.68,5.44 -0.93,7.12 -9.37,8.11 -3.63,0.42 -10.42,0.07 -14.36,0.06 -69.38,-0.3 -148.66,1.8 -215.25,-0.07 -3.02,-2.05 -7.34,-7.15 -7.78,-7.72zm187.93 -15.58l-165.04 -0.17 -0.3 -197.73 -0.66 -4.47 206.6 -0.26 1.15 184.11c-0.42,24.83 -4.76,14.57 -41.75,18.52z"/>
   <path class="fil0" d="M1519.51 1694.38l4.52 0.66 198.45 -0.6 0.1 199.12c-4.25,5.63 -0.06,3.03 -7.87,4.62l-195.72 -0.17 0.52 -203.63zm-14.8 224.06c4.78,4.45 180.39,1.81 215.5,2.07 14.94,0.1 19.79,3.36 24.14,-8.45l0.87 -232c-0.38,-0.49 -2.44,-3.19 -3.45,-4.2 -1.05,-1.05 -3.71,-3.07 -4.2,-3.45 -70.22,-1.87 -145.51,-2.32 -215.93,-1.36 -10.66,0.14 -20.17,1.58 -22.93,6.53 -3.28,5.89 -3.51,227.16 0.13,238.36 3.85,4.39 -0.35,2.44 5.87,2.5z"/>
   <path class="fil0" d="M6030.75 4094.53c-54.24,17.97 -351.24,346.32 -1171.96,346.35 -344.81,0 -765.34,-73.66 -1053.53,-266.59 -35.96,-24.07 -86.11,-69.73 -118.04,-81.26 -21.43,66.72 -55.46,111.21 -26.26,198.99 51.1,153.64 235.02,261.25 384.54,328.36 516.13,231.66 1517.65,207.75 1912.34,-180.63 36.74,-36.16 74.17,-80.48 96.5,-141.2 33.75,-91.77 -0.1,-133.4 -23.59,-204.02zm-695.28 -30.44c185.31,-38.75 360.5,-100.62 498.34,-188.33 114.09,-72.59 306.9,-224.03 201.85,-426.46 -80.55,22.85 -157.78,46.07 -247.86,64.23 -172.88,34.85 -74.65,7.15 -186.73,120.67 -91.64,92.84 -235.66,176.46 -390.57,234.19 -155.26,57.86 -328.55,97.14 -508.73,116.55 -323.18,34.84 -420.22,-7.28 -580.4,1.77 386.11,127.27 787.21,166.64 1214.1,77.38zm-202.79 -510.11c-380.46,-47.29 -942.59,-143.72 -1115.64,-498.05 -14.78,-30.25 -18.85,-78.22 -39.34,-101.43 -2.54,-2.86 -163.65,-92.64 -184.34,-105.98 -33.9,-21.87 -54.84,-40.46 -84.48,-65.11 -28.11,-23.4 -44.7,-49.61 -73.36,-69.12 -134.78,35.08 -320.49,176.41 -375.58,259.52 -124.82,188.35 12.5,333.6 121.62,418.46 223.76,174 635.2,278.26 993.2,278.26 204.35,0 601.4,-30.76 757.92,-116.55zm210.14 -323.47c346.64,0.07 724.55,-91.98 957.51,-252.37 366.84,-252.57 200.49,-494.44 -117.36,-662.99 -16.51,81.58 7.65,153.3 -19.59,244.61 -51.75,173.54 -230.71,302.27 -401.31,381.83 -410.69,191.53 -768.01,190.73 -1200.21,165.1 290.94,92.37 451.26,123.75 780.96,123.82zm-265.52 -1529.38c-510,-51.27 -1127.83,77.63 -1363.25,371.59 -186.04,232.29 74,440.06 236.22,522.03 209.79,106.01 422.29,161.14 685.16,186.02 514.76,48.69 1130.49,-76.91 1368,-372.35 186.55,-232.06 -74.42,-441.04 -236.04,-522 -221.03,-110.71 -415.77,-157.72 -690.09,-185.29zm-1833.87 1110.57c33.95,-16.7 45.72,-32.92 78.47,-57.51 95.13,-71.45 223.76,-121.55 249.72,-143.93 -37.1,-147.17 -63.74,-407.39 16.52,-549.14 68.07,-120.21 197.63,-216.75 337.73,-286.95 327.17,-163.93 663.03,-192.89 1070.28,-191.32 27.24,7.49 159.88,14.24 209.38,20.96 72.55,9.85 140.29,22.33 208.21,37.96 224.95,51.77 511.66,164.62 652.82,332.83 145.49,173.34 61.98,191.06 139.78,229.49 29.53,14.6 57.94,27.42 82.66,40.92 324.73,177.28 338.73,353.06 329.72,656.04 -9.99,335.93 -424.51,467.44 -472.49,510.05 37.48,127.33 32.33,164.84 32.66,308.02 0.4,168.81 -17.39,159.57 -73.78,281.61 41.68,90.44 72.8,109.21 73.91,237.45 2.42,279.39 15.72,432.13 -307.38,625.73 -526.22,315.33 -1499.59,315.61 -2025.72,0.01 -322.7,-193.57 -309.75,-346.02 -307.35,-625.74 0.8,-94.08 29.07,-178.3 77.86,-235.42 -10.84,-30.46 -24.35,-43.35 -40.15,-74.72 -12.26,-24.36 -21.27,-65.47 -31.02,-83.47 -24.72,-45.62 -262.18,-101.49 -386.87,-308.39 -81.2,-134.75 -89.07,-452.62 -13.32,-589.22 36.94,-66.63 88.69,-110.14 98.36,-135.26z"/>
   <path class="fil0" d="M5333.75 2674.69c0.85,4.58 -2.94,7.45 -7.3,7.38 -99.91,0 -199.83,-0.08 -299.74,-0.01 -14.06,0.02 -27.89,3.82 -31.31,-9.72l-0.31 -304.78c-0.23,-16.7 -2.65,-22.06 15.22,-23.09 54.48,-3.16 283.35,-2.08 314.07,-0.66 13.67,4.05 9.52,18.04 9.51,33.03l-0.14 297.85zm-22.01 -15.18l-0.73 -293.4 -293.14 0.55 -0.17 291.08c8.92,2.55 280.69,-0.02 294.04,1.77z"/>
   <path class="fil0" d="M5023.01 1779.27l-4.91 0.5 -0.23 292.72 293.2 1.51 0.67 -7.98 -0.01 -286.37 -286.87 -0.46 -1.85 0.08zm301.83 316.1c-53.27,2.29 -111.12,0.21 -164.91,0.26 -18.58,0.01 -155.15,2.91 -161.36,-3.31 -7.43,-7.46 -3.33,-64.07 -3.33,-78.09 -0.01,-76.96 -2.44,-176.65 0.26,-248.59 4.62,-9.47 10.42,-8.58 34.91,-8.57l125.82 0.01c56.62,0 113.65,-0.67 170.22,0.1 5.51,-1.03 7.9,1.9 7.29,7.31l-0.02 320.05c-2.33,12.78 -2.58,9.72 -8.88,10.83z"/>
   <path class="fil0" d="M4837.48 2064.8l0.85 7.86 21.4 -0.23 0.11 -24.91c0.12,-10.92 0.4,-18.39 11.63,-19.7 6.87,-0.8 18.33,-0.04 25.72,-0.1l8.03 0.02c-1.08,-37.38 -4.14,-45.43 19.64,-45.34 15.5,0.05 43.03,-5.31 48.09,9.64l0.13 125.7c17.32,0.06 54.23,-2.23 75.78,0.14 9.06,0.99 14.69,-0.53 15.36,7.62 1.49,18.3 2.08,41.4 -3.35,57.95 -28.89,8.94 -98.19,-0.01 -130.7,1.87 -7,0.12 -2.4,33.87 -2.91,39.81 -4.29,3.73 -9.88,5.54 -16,6.32 -18.98,2.43 -70.09,0.27 -89.93,-0.9 -5.29,0.67 -7.22,-2.33 -8.07,-4.42 -0.04,-24.26 1.05,-57.51 1,-85.13 -10.64,0.78 -27.17,2.27 -35.8,-0.85 -5.78,-2.02 -7.62,-4.74 -8,-5.08 -3.94,-27.29 -0.99,-78.13 -0.97,-107.89 0,-14.52 -4.97,-40.82 9.55,-44.16 7.49,-1.72 45.61,-1.21 52.03,0.69 9.86,7.8 6.39,23.48 6.39,37.92 -0.01,14.39 -0.02,28.78 0.02,43.17zm112.17 61.29l-0.32 -120.59 -20.67 0.41c1.68,54.4 1.03,41.88 -42.59,44.74 -11.96,7.08 7.66,40.91 -13.11,44.73 -9.51,1.74 -45.02,0.4 -54.36,-1.09l-4.2 -5.12 -0.31 -83.37 -20.97 -0.33c0.02,10.7 -0.19,111.22 0.6,112.49 7.9,-0.22 16.08,-0.25 23.99,-0.21 11.46,0.05 16.7,-0.3 19.19,10.25 4.55,19.29 -0.77,57.82 0.95,80.18l67.72 0.17c-0.9,-8.39 -0.48,-17.29 -0.53,-25.86 -0.05,-8.95 2.48,-19.42 11.9,-19.45l122.49 -0.48 0.23 -21.52c-10.06,0.41 -77.92,2.44 -80.76,-1.32 -8.1,-2.04 -9.24,-7.02 -9.25,-13.63z"/>
   <path class="fil0" d="M4747.02 1766.33c2.78,70.2 0.25,170.37 0.25,246.05 0,6.72 1.61,70.88 -1.38,76.17 -1.66,2.95 -2.12,5.37 -5.6,4.71 -5.97,4.29 -287.86,3.84 -321.34,2.06 -8.34,-2.02 -9.79,-5.16 -10.27,-14.48l0.8 -323.57 293.41 -0.22c13.03,0 40.84,-3.25 44.13,9.28zm-316.32 298.54l-0.03 7.91 2.6 0.32 290.93 -0.37 0.55 -292.87 -293.85 -0.5 -0.13 160.86 -0.07 124.65z"/>
   <path class="fil0" d="M5131.39 2186.95l-23.14 -0.84c0.52,14.85 1.92,32.21 -3.45,42.94 -6.57,1.74 -14.67,2.11 -22.59,1.94 -22.45,-0.48 -18.49,-1.85 -19.06,5.24l0.11 61.39 21.92 -0.09c-0.56,-5.97 -2.21,-32.4 0.97,-34.85 5.25,-14.67 26.39,-9.19 42.35,-9.26 13.75,-0.06 18.4,-2.48 24.49,7.22l1.57 36.79 156.1 0.37 0.09 -66.53 -20.6 -0.15c0.9,23.78 -0.44,22.42 -3.34,42.46 -13.62,4.08 -49.31,4.59 -63.12,0.51 -5.35,-11.58 -2.72,-76.61 -2.72,-95.2 0.18,-10.54 -0.1,-12.3 7.47,-14.84 8.25,-5 67.76,-1.97 82.48,-1.73l-0.09 -21.14 -112.39 0.66c0.16,8.67 1.21,73.55 -0.92,82.1l-1.6 4.66c-12.44,0.73 -34.96,2.75 -49.71,2.36 -9.62,-0.26 -15.7,-7.96 -15.69,-18.65 0.02,-8.33 -0.64,-17.43 0.87,-25.36zm-81.75 21.83c5.22,-4.4 26.83,-1.91 34.98,-0.82 -0.62,-6.85 2.24,-30.03 1.52,-36.09 -0.32,-6.68 2.95,-7.61 6.73,-7.73l54.1 -0.8c6.57,0.35 6.68,3.81 6.73,19.17 0.02,7.15 -0.1,21.39 -0.02,25.52l22.03 -0.39 0.8 -77.21c0.07,-6.66 -0.93,-7.27 4.98,-10.96 10.28,-3.36 126.67,-2.22 144.96,-1.24 12.59,9.55 11.06,62.37 0.46,66.51 -8.86,3.46 -67.01,-0.53 -83.22,1.63l0.06 66.51c2.22,0.3 7.89,0.91 10.45,0.86 6.95,-0.25 11.71,0.07 12,-4.54 -0.07,-15.09 -3.44,-31.14 6.22,-39.78 9.02,-2.8 34.61,-1.68 49.19,-1.2 13.88,0.46 12.4,12.04 12.32,22.42l-0.03 66.67c0.09,11.91 1.95,19.88 -9.06,23.63l-183.42 -0.09c-7.67,-2.07 -8.38,-8.39 -9.24,-16.34 -0.94,-8.74 -1.61,-19.47 -1.44,-28.7l-22.52 0.48c0.32,8.65 0.12,19.2 -0.71,27.92 -0.89,9.21 -2.68,16.39 -12.23,17.13 -10.28,0.79 -27.36,1.07 -40.18,-0.32 -15.59,-1.68 -13.34,-2.55 -14.86,-18.32 -2.95,-30.74 -3.38,-89.65 9.4,-93.92z"/>
   <path class="fil0" d="M4860.97 1953.87l-1.15 -83.73 -22.26 -0.31 -1.23 83.93c-3.59,8.65 -14.25,6.62 -26.11,6.56 -6.77,-0.04 -27.3,0.8 -32.41,-0.83 -14.69,-4.68 -8.3,-43.74 -8.29,-58.11 0.01,-44.96 -0.41,-90.12 0.11,-135.05 1.22,-3.58 3.79,-6.33 6.85,-7.94 5.02,-2.63 43.14,-1.84 48.65,-1.37 18.17,1.55 12.31,28.05 12.32,45.24l23.56 -0.48c-2.03,-9.23 -1.62,-20.36 -1.19,-30.04 0.86,-19.7 13.24,-14.44 44.79,-14.7 17.45,1.2 22.8,-1.24 22.41,13.59l0.88 75.86c13.99,2.6 28.68,-1.12 41.84,2.87 6.33,12.67 3.65,36.14 3.24,52.02 -1.42,9.85 -3.97,12.68 -11.12,14.07 -8.72,1.68 -22.93,0.62 -33.41,-0.01l-0.5 38.43c-0.21,-0.17 0.87,5.02 -5.69,6.43 -11.64,2.49 -54.37,2.32 -61.29,-6.43zm-44.74 -136.6c-5.55,-2.6 -2.29,-30.46 -2.15,-37.33l-0.17 -0.01 -21.08 0.15 0.37 156.53 20.73 -0.15c-0.45,-15.17 -2.75,-72.26 1.59,-81.88 4.93,-7.03 1.69,-4.69 9.49,-7.02 12.26,-1.61 43.46,-1.43 54.31,1.57 9.33,18.08 -0.53,64.01 4.1,88.15l20.49 0.06c3.43,-11.52 -3.56,-33.81 4.22,-41.63 6.49,-6.52 31.54,-2.04 41.86,-4.18l-0.04 -20.94c-27.6,-4.41 -45.14,11.52 -44.86,-22.8 0.16,-19.09 1.8,-50.23 -0.53,-68.02l-21.53 0.12c-1.53,15.94 5.09,39.78 -8.77,42.99 -5.56,4.26 -22.16,1.82 -30.74,1.84 -13.77,0.04 -23.3,2.8 -27.29,-7.45z"/>
   <path class="fil0" d="M4566.6 2492.75l0.03 91.29 -0.36 1.84c-9.05,8.46 -11,6.25 -24.35,6.14 -11.72,-0.1 -23.43,0.06 -35.16,-0.15 -11.98,-6.85 -7.97,-17.26 -7.95,-44.51 -15.12,-2.07 -26.69,0.55 -34.33,-0.47 -10.08,-1.34 -10.44,-8.84 -10.51,-16.75 -0.08,-9.43 0.07,-23.62 -1.44,-28.3l-36.43 -0.2c-6.1,-3.54 -4.79,-1.52 -7.09,-8.86l-0.31 -42.97c-0.05,-6.85 1.75,-11.23 7.4,-15.74 24.6,-1.35 51.03,-0.31 75.86,-0.44 12.8,-0.06 25.99,-2.67 28.98,8.52 1.57,5.88 0.62,28.9 0.61,36.56l29.94 0.65c11.61,0.26 15.1,0.03 15.11,13.39zm-89.42 -0.83c1.61,9.18 0.16,27.62 0.08,31.93 6.32,-0.22 32.4,1.69 35.96,1.61 9.24,1.64 8.45,5.86 8.43,17.8 -0.01,8.64 -0.14,17.25 0.01,25.95l22.38 0.06 -0.49 -67.55c-7.52,-1.77 -32.44,-1.73 -39.45,-1.77 -7.35,-8.21 -3.23,-28.7 -5.37,-41.71l-6.77 -1.51 -60.04 0.3 -0.52 21.26c13.02,1.72 29.85,-1.53 36.93,2.56 6.83,0.53 7.5,3.3 8.85,11.07z"/>
   <path class="fil0" d="M4964.46 2525.4c10.44,1.64 8.8,11.4 8.68,21.59l-0.28 125.85 -1.46 1.86c-5.76,12.19 -58.21,11.89 -64.74,0 -4.52,-5.87 -0.76,-67.01 -1.8,-79.56 -0.15,-1.14 -0.51,-3.91 -5.83,-3.17l-73.54 -0.01c-9.04,-1.85 -8.89,-1.88 -10.23,-6.08 -1.2,-17.84 -0.48,-37.44 -0.5,-55.49 -0.02,-9.25 0.02,-18.51 -0.07,-27.76 -0.15,-13.86 -2.42,-18.48 8.47,-22.64 2.86,-3.01 45.54,-1.11 53.67,-1.12 9.89,0 19.78,0.02 29.67,-0.05 13.85,-0.1 21.47,0.28 22.9,16.08 0.85,9.4 -0.84,23.57 -1.08,28.91 6.84,-0.38 32.92,-2.07 36.14,1.59zm-36.51 54.7c0.5,15.26 0.92,66.47 0.45,79.1l21.4 -0.03 -0.83 -112.45 -37.73 -0.47c-4.37,-0.4 -8.34,-5.84 -7.3,-8.01l1.89 -36.63 -68.44 0.06 0.09 67.67 83.63 2.38c6.58,-0.11 6.63,1.76 6.84,8.38z"/>
   <path class="fil0" d="M4792.51 2219.04l-0.24 94.89c-7.7,8.96 -9.02,7.55 -24.59,7.44 -11.75,-0.09 -23.43,0.14 -35.17,-0.34l-5.78 -2.3c-5.31,-20 -2.52,-67.66 -2.47,-91.75 0.25,-13.12 -0.24,-12.02 6.4,-18.22 11.66,-0.95 23.43,-0.52 35.15,-0.6 9.88,-0.06 26.73,-2.74 26.7,10.88zm-45.78 79.28l22.07 0.01 0.67 -67.23 -21.92 -0.11 -0.19 5.26 -0.63 62.07z"/>
   <path class="fil0" d="M4879.3 2618.05c6.18,7.39 3.75,54.5 2.13,57.55 -2.7,5.08 -4.12,4.51 -10.41,5.78 -12.82,2.57 -43.34,0.73 -51.55,0.73 -30.94,-0.01 -45.98,4.73 -49.56,-10.65 -1.57,-15.36 -1.9,-43.04 2.36,-55.08 9.65,-2.51 96.54,-4.36 101.95,-0.07l5.08 1.74zm-19.46 20.44l-67.22 -0.9c0.25,8.18 -0.74,14.11 1.55,21.75l65.56 -0.19 0.11 -20.66z"/>
   <path class="fil0" d="M4657.2 2141.28l66.65 0.43 -0.32 20.55c-3.83,-0.32 -18.65,-0.29 -28.19,0.66 -9.67,0.96 -14.71,1.22 -14.83,13.33 -0.1,10.89 -0.02,19.61 -0.67,32.15l-5.63 -0.22 -17.17 -0.13c-1.79,-6.41 -0.31,-66.34 0.16,-66.77zm32.73 89.68l-48.09 -0.21c-6.77,-5.19 -7.48,-3.7 -7.78,-16.58 -0.2,-8.49 0.08,-17.48 0.08,-26.03 -0.01,-17.27 -0.11,-34.55 0,-51.8 0.03,-10.47 -0.21,-13.29 7.68,-16.91 2.16,-3.2 68.49,-2.26 91.54,-1.47 7.41,0.25 9.35,0.86 12.41,8.99 4.72,12.49 1.38,30.83 0.46,43.49 -0.76,10.31 -3.04,13.92 -13.34,15.42 -9.54,1.38 -24.8,-0.12 -30.73,-0.27l-0.94 38.21c-3.39,4.46 -4.57,6.47 -11.29,7.16z"/>
   <path class="fil0" d="M4740.54 2679.81c-1.74,1.11 -1.13,1.07 -4.53,1.81l-85.06 0.55c-21.56,-0.31 -17.2,-12.91 -16.89,-50.14 0.1,-12.21 0.84,-14.38 7.76,-16.23 6.75,-3.82 29.24,-1.91 37.14,-1.7l0.14 -30.37c0.39,-7.01 1.38,-11.34 9.07,-12.8 4.35,-0.83 11.47,-1.71 23.98,-1.71 10.97,0.01 34.12,-3.07 34.94,10.66 1.29,15.87 0.26,35.9 0.24,52.27 -0.02,12.72 4.69,44.97 -6.79,47.66zm-42.76 -40.8l-2.3 0.04 -37.62 -0.58 -0.2 20.17 65.67 0.18 1.49 -37.95 0.6 -28.35 -23.77 -0.85c-3.2,4.2 0.23,44.04 -3.87,47.34z"/>
   <path class="fil0" d="M4506.39 2411.01l-86.5 -0.49c-8.11,-0.04 -10.98,-4.67 -11.13,-12.2 -0.14,-7.78 -0.06,-15.53 -0.08,-23.33 -0.04,-11.96 -3.7,-27.25 9.57,-31.16 26.24,-1.39 62.29,-1.4 88.64,-0.4 19.4,0.74 15.67,17.65 14.78,52.06 -0.32,12.71 -4.07,15.59 -15.28,15.52zm-75.5 -22.15l67.65 0.17c2.13,-6.99 2.37,-15.38 1.11,-22.66l-68.13 -0.38 -0.63 22.87z"/>
   <path class="fil0" d="M4454.85 2631.31c-5.83,-9.47 -2.98,-27.13 -2.81,-38.69l-20.01 -0.26 -0.31 66.53 66.56 -0.03 0.13 -20.08c-6.6,0.05 -29.57,1.13 -35.29,-1.1 -3.89,-1.27 -3.8,-0.77 -8.27,-6.37zm38.96 50.82l-77.71 -0.21c-3.92,2.18 -8.09,-1.72 -7.59,-7.23 -0.29,-16.64 0.17,-33.3 0.16,-49.94 -0.01,-8.02 0.01,-16.04 -0.02,-24.06 -0.02,-4.21 -0.25,-8.93 -0.17,-13.04 0.18,-8.87 0.85,-12.95 7.62,-18.23 6.52,-0.15 50.69,-1.93 55.38,1.79 10.49,8.33 4.94,30.78 4.8,43.28 13.26,1.19 46.75,-3.2 44.89,8.73 0.81,3.53 0.42,12.26 0.39,16.31 -0.3,37.57 7.93,42.83 -27.75,42.6z"/>
   <path class="fil0" d="M4463.43 2207.91l-31.27 -0.1 -0.8 -21.99 64.31 0.23 4.35 0.4c1.8,12.7 -0.48,23.92 1.35,34.82 14.28,6.56 68.26,2.36 88.62,2.39l-0.06 27.43c-9.33,-0.19 -62.58,0.6 -79.01,2.07l-8.45 2.91c-4.81,6.76 -3.8,20.69 -3.62,41.62l-22.64 1.08c0.23,-13.28 2.27,-51.7 0.02,-73.31 -1.44,-13.88 -1.13,-13 -12.8,-17.55zm-52.26 -33.34l0.17 54.33c12.28,2.98 28.17,2.31 42.13,1.96l1.29 81.73c2.37,13.82 40.97,9.38 54.04,8.96 4.94,-0.17 7.29,-1.51 12.56,-7.62l0.02 -38.01c25.24,-0.29 47.4,-0.08 76.6,0.13 15.19,0.11 14.18,-3.16 15.26,-18.47 1.26,-17.92 1.23,-32.8 -1.45,-50.58 -14.74,-9.76 -81.62,-4.23 -86.52,-3.43l-0.01 -3.7c-0.04,-9.93 -1.17,-19.25 -0.52,-28.06 0.43,-5.85 -3.28,-9.41 -11.28,-9.24 -22.4,0.48 -68.69,-1.23 -89.58,0.09 -9.83,0.62 -12.74,0.95 -12.71,11.91z"/>
   <path class="fil0" d="M4722.86 2487.31c3.83,-7.82 2.44,-3.75 9.25,-6.63 4.83,-3.9 29.7,-1.73 38.31,-2.01 -1.67,-8.8 -1.14,-18.8 -1.02,-27.97 0.15,-11.08 0.9,-14.24 10.58,-16.23 3.38,-3.35 150.38,-1.77 169,-1.19l-0.02 -156.07 -19.94 0.3 0.22 36.82c-3.5,8.72 -12.73,7.13 -24.62,7.06 -9.67,-0.05 -20.27,0.4 -29.78,0.01 -24.19,-0.99 -11.65,-25.14 -15.74,-45.14l-21.14 -1.16 -0.38 68.48c15.02,1.99 74.51,-2.18 82.38,0.05 2.26,0.75 5.13,3.41 6.62,5.94 2.73,5.01 1.23,49.98 0.29,55.02 -3.51,2.77 -10.04,7.1 -20.37,6.53 -36.64,-2.07 -124.68,1.93 -159.77,0.51 -22.86,-0.93 -19.28,0.3 -21.05,-17.69 -0.85,-8.68 -1.99,-20.13 -1.5,-27.28l-26.74 0.32c0.34,5.83 1.92,20.16 0.72,29.13 -2.16,16.11 -5.35,15.45 -19.27,15.34 -21.21,-2.28 -47.11,3.39 -44.65,-11.65l-0.25 -33.09 -21.21 -0.18 -1.06 32.52 -1.08 6.15c-2.25,6.2 -6.78,4.5 -13.27,6.17 -2.26,0.29 -6.71,0.17 -9.14,0.15 -28.66,-0.3 -19.11,-0.15 -21.48,4.16l-0.77 17.83 84.97 0.02c2.23,2.72 4.79,3.39 4.95,8.28 0.72,22.17 0.45,65.12 1.2,81.3l66.26 0.37 -0.5 -36.17zm-86.88 52.34l-1.81 -3.69 -0.05 -77.72c-22.68,-1.36 -49.32,0.8 -66.79,-2.46 -15.44,-2.87 -23.46,-2.48 -23.31,-25.28 0.05,-7.4 -0.84,-18.74 0,-26.68 1.07,-10.11 0.5,-12.74 10.49,-14.63 10.32,-1.94 19.58,1.52 31.82,-1.12l4.17 -0.73c-1.36,-9.42 -0.49,-24.71 -0.69,-35.08 -0.14,-7.28 1.02,-6.36 8.5,-7.49 15.14,-2.29 45.3,-3.29 53.77,0.61 7.92,9.04 5.41,28.61 4.96,43.13l23.03 0.25c-0.86,-7.21 -1.31,-22.06 0.21,-31.19 1.16,-6.99 -2.68,-12.91 5.05,-14.21 6.47,-0.69 49.19,-0.54 53.92,0.85 5.17,1.51 5.37,6.73 6.31,13.29 1.45,10.04 1.75,23.23 1.68,31.06l158.56 0.16 -1.61 -22.91c-14,-0.21 -55.85,-1.19 -71.76,0.69 -19.2,0.13 -16.61,-9.29 -17.64,-19.41 -2.52,-25.03 0.43,-81.59 2.45,-88.69 3.21,-4.36 2.03,-4.43 9.69,-5.06 9.85,-0.81 48.61,-4.67 51.3,4.84 2.78,9.84 0.69,33.47 2.55,39.97 11.35,0.51 19.25,1.65 24.01,-2.7 0.52,-4.82 0.35,-11.22 0.28,-16.65 -0.12,-10.93 -2.08,-21.29 8.77,-25.36 14.32,-0.01 52.52,-5.66 56.7,7 4.78,6 2.61,14.76 2.56,22.04l-0.24 164.65c-2.43,8.54 -8.6,9.38 -18.55,9.57l-150.39 -0.01 -11.22 0.31c-0.33,8.66 -0.11,16.98 -0.09,25.37 0.05,13.67 0.94,14.38 -10.14,18.91 -9.72,1.85 -27.87,-3.71 -34.77,3.2 -0.8,5.94 1.34,32.7 -2.15,35.17 -5.37,9.09 -7.86,7.29 -20.4,7.16 -8.65,-0.1 -17.3,-0.07 -25.96,-0.07 -18.5,-0.02 -37,0.05 -55.5,-0.08l-1.87 -1.36c-5.35,-2.45 -3.18,-0.37 -5.84,-5.65z"/>
   <path class="fil0" d="M5266.75 2027.75l-0.35 -202.56 -197.22 -0.14c-6.66,1.69 -1.93,-1.63 -5.46,4.17l0.09 198.29 197.9 0.2 5.04 0.04zm-226.21 14.95c-1.93,-69.52 -2.76,-146.31 -0.75,-215.99 0.31,-10.82 1.71,-20.44 5.91,-22.81 4.39,-2.46 233.95,-4.4 239.84,1.49 6.1,6.13 3.12,101.11 3.12,118.19 0,15.25 1.44,114.25 -1.09,120.4 -4.76,11.58 -39.56,6.49 -53.62,6.5 -59.33,0.04 -127.9,1.44 -185.23,-0.12l-8.16 -0.14 -0.02 -7.52z"/>
   <path class="fil0" d="M4702 2042.69l-0.81 -231.97c-2.63,-7.21 -5.15,-7.72 -5.38,-7.93 -35.27,-3.42 -85.55,-0.53 -122.44,-0.53 -18.68,0 -110.9,-4.31 -117.2,4.1 -4.35,5.82 -2.98,233.08 -0.93,235.96 1.68,5.43 0.93,7.11 9.37,8.1 3.63,0.43 10.42,0.08 14.36,0.06 69.38,-0.29 148.66,1.81 215.25,-0.06 3.02,-2.05 7.34,-7.15 7.78,-7.73zm-187.93 -15.57l165.04 -0.18 0.3 -197.72 0.66 -4.48 -206.6 -0.26 -1.15 184.11c0.42,24.84 4.76,14.58 41.75,18.53z"/>
   <path class="fil0" d="M5266.23 2410.78l-4.52 0.66 -198.45 -0.6 -0.1 199.11c4.25,5.63 0.06,3.04 7.87,4.63l195.72 -0.17 -0.52 -203.63zm14.8 224.06c-4.78,4.45 -180.39,1.81 -215.5,2.06 -14.94,0.11 -19.79,3.36 -24.14,-8.45l-0.87 -232c0.38,-0.49 2.44,-3.18 3.45,-4.2 1.05,-1.04 3.71,-3.07 4.2,-3.44 70.22,-1.87 145.51,-2.33 215.93,-1.36 10.66,0.14 20.17,1.58 22.93,6.53 3.28,5.89 3.51,227.16 -0.13,238.36 -3.85,4.39 0.35,2.44 -5.87,2.5z"/>
   <path class="fil0" d="M5560.87 1128.03c37.09,-147.16 63.75,-407.4 -16.52,-549.13 -68.07,-120.23 -197.64,-216.77 -337.73,-286.96 -327.18,-163.93 -663.04,-192.89 -1070.28,-191.33 -27.24,7.49 -159.89,14.24 -209.37,20.96 -72.57,9.85 -140.31,22.34 -208.21,37.96 -224.96,51.79 -511.66,164.62 -652.83,332.84 -87.11,103.8 -142.83,214.98 -116.41,340.56 16.5,81.58 -7.65,153.28 19.59,244.62 51.74,173.52 230.7,302.24 401.31,381.82 410.69,191.51 768,190.72 1200.21,165.09 378.93,-35.29 777.32,-149.83 990.24,-496.43zm-1505.69 -909.12c510.02,-51.28 1127.84,77.63 1363.26,371.59 186.03,232.27 -73.99,440.06 -236.21,522.01 -209.8,106.02 -422.3,161.15 -685.17,186.03 -514.77,48.69 -1130.5,-76.91 -1368,-372.34 -186.54,-232.06 74.42,-441.06 236.03,-522.01 221.05,-110.71 415.79,-157.72 690.09,-185.28z"/>
   <path class="fil0" d="M3798.75 1192.46c-0.86,4.58 2.93,7.45 7.29,7.38 99.91,0 199.83,-0.08 299.74,-0.01 14.06,0.02 27.89,3.82 31.32,-9.73l0.3 -304.77c0.23,-16.7 2.65,-22.06 -15.21,-23.09 -54.49,-3.16 -283.36,-2.08 -314.08,-0.66 -13.67,4.05 -9.52,18.04 -9.51,33.03l0.15 297.85zm22 -15.18l0.73 -293.4 293.15 0.55 0.16 291.08c-8.92,2.55 -280.69,-0.02 -294.04,1.77z"/>
   <path class="fil0" d="M4109.48 297.04l4.91 0.5 0.24 292.72 -293.21 1.51 -0.67 -7.98 0.01 -286.37 286.87 -0.46 1.85 0.08zm-301.83 316.1c53.27,2.29 111.12,0.21 164.91,0.26 18.59,0.01 155.15,2.91 161.36,-3.31 7.43,-7.46 3.33,-64.07 3.33,-78.09 0.01,-76.96 2.44,-176.65 -0.26,-248.6 -4.62,-9.46 -10.42,-8.57 -34.91,-8.56l-125.82 0.01c-56.62,0 -113.65,-0.67 -170.22,0.1 -5.5,-1.03 -7.9,1.9 -7.29,7.31l0.03 320.05c2.32,12.78 2.58,9.72 8.87,10.83z"/>
   <path class="fil0" d="M4295.01 582.57l-0.85 7.86 -21.4 -0.23 -0.11 -24.91c-0.12,-10.92 -0.4,-18.39 -11.63,-19.7 -6.87,-0.8 -18.33,-0.04 -25.72,-0.1l-8.03 0.02c1.08,-37.39 4.14,-45.43 -19.64,-45.34 -15.5,0.05 -43.03,-5.31 -48.09,9.64l-0.13 125.7c-17.32,0.06 -54.23,-2.23 -75.78,0.14 -9.06,0.99 -14.69,-0.53 -15.35,7.62 -1.5,18.3 -2.09,41.4 3.35,57.95 28.88,8.94 98.18,-0.01 130.69,1.87 7,0.11 2.41,33.87 2.91,39.81 4.29,3.73 9.88,5.54 16,6.32 18.98,2.43 70.1,0.27 89.93,-0.9 5.3,0.67 7.22,-2.33 8.07,-4.42 0.04,-24.26 -1.05,-57.51 -1,-85.13 10.65,0.78 27.17,2.27 35.8,-0.85 5.78,-2.02 7.62,-4.74 8,-5.08 3.94,-27.29 0.99,-78.13 0.98,-107.89 -0.01,-14.52 4.96,-40.82 -9.56,-44.16 -7.49,-1.72 -45.61,-1.21 -52.03,0.69 -9.86,7.8 -6.39,23.48 -6.38,37.92 0,14.39 0.01,28.78 -0.03,43.17zm-112.17 61.29l0.32 -120.59 20.67 0.41c-1.68,54.4 -1.03,41.88 42.59,44.74 11.96,7.08 -7.66,40.91 13.12,44.73 9.5,1.74 45.01,0.4 54.35,-1.09l4.2 -5.12 0.31 -83.37 20.97 -0.33c-0.02,10.7 0.19,111.22 -0.6,112.48 -7.9,-0.21 -16.08,-0.24 -23.99,-0.2 -11.46,0.05 -16.7,-0.3 -19.19,10.25 -4.54,19.29 0.78,57.82 -0.94,80.18l-67.73 0.17c0.9,-8.39 0.49,-17.29 0.53,-25.86 0.06,-8.95 -2.48,-19.42 -11.9,-19.45l-122.49 -0.48 -0.23 -21.52c10.06,0.41 77.92,2.44 80.76,-1.32 8.1,-2.04 9.24,-7.02 9.25,-13.63z"/>
   <path class="fil0" d="M4385.47 284.1c-2.77,70.2 -0.25,170.37 -0.25,246.05 0,6.72 -1.61,70.87 1.38,76.17 1.66,2.95 2.12,5.37 5.6,4.71 5.97,4.28 287.87,3.84 321.35,2.06 8.33,-2.03 9.79,-5.16 10.26,-14.48l-0.8 -323.57 -293.41 -0.22c-13.03,0 -40.84,-3.25 -44.13,9.28zm316.32 298.54l0.03 7.91 -2.6 0.32 -290.93 -0.37 -0.55 -292.87 293.85 -0.5 0.13 160.86 0.07 124.65z"/>
   <path class="fil0" d="M4001.1 704.72l23.14 -0.84c-0.52,14.85 -1.92,32.21 3.45,42.94 6.57,1.74 14.67,2.11 22.59,1.94 22.45,-0.49 18.49,-1.85 19.07,5.24l-0.12 61.39 -21.92 -0.09c0.56,-5.97 2.22,-32.4 -0.96,-34.85 -5.26,-14.67 -26.4,-9.19 -42.35,-9.26 -13.76,-0.06 -18.41,-2.48 -24.5,7.22l-1.57 36.79 -156.1 0.37 -0.09 -66.53 20.6 -0.15c-0.89,23.78 0.44,22.42 3.34,42.46 13.62,4.08 49.31,4.59 63.12,0.51 5.35,-11.58 2.72,-76.61 2.72,-95.2 -0.18,-10.54 0.11,-12.3 -7.47,-14.84 -8.25,-5 -67.75,-1.97 -82.48,-1.73l0.09 -21.14 112.39 0.66c-0.16,8.67 -1.21,73.55 0.93,82.1l1.59 4.66c12.45,0.73 34.96,2.75 49.71,2.36 9.62,-0.26 15.7,-7.96 15.69,-18.65 -0.02,-8.33 0.64,-17.43 -0.87,-25.36zm81.75 21.83c-5.22,-4.4 -26.83,-1.91 -34.98,-0.82 0.62,-6.85 -2.24,-30.03 -1.52,-36.09 0.32,-6.68 -2.95,-7.61 -6.72,-7.73l-54.11 -0.8c-6.57,0.35 -6.68,3.81 -6.72,19.17 -0.03,7.15 0.09,21.39 0.01,25.52l-22.03 -0.39 -0.8 -77.21c-0.07,-6.66 0.93,-7.27 -4.98,-10.96 -10.28,-3.36 -126.67,-2.22 -144.96,-1.24 -12.59,9.55 -11.06,62.37 -0.46,66.51 8.86,3.46 67.01,-0.53 83.22,1.63l-0.06 66.51c-2.22,0.3 -7.89,0.91 -10.45,0.86 -6.95,-0.25 -11.71,0.07 -12,-4.54 0.07,-15.09 3.44,-31.14 -6.22,-39.78 -9.02,-2.8 -34.61,-1.68 -49.18,-1.2 -13.89,0.46 -12.41,12.04 -12.33,22.42l0.03 66.67c-0.09,11.91 -1.95,19.88 9.06,23.63l183.42 -0.09c7.67,-2.07 8.38,-8.39 9.24,-16.34 0.94,-8.74 1.61,-19.47 1.45,-28.71l22.51 0.49c-0.32,8.65 -0.12,19.2 0.72,27.92 0.88,9.21 2.67,16.39 12.22,17.13 10.28,0.79 27.37,1.07 40.18,-0.32 15.59,-1.68 13.34,-2.55 14.86,-18.32 2.95,-30.74 3.38,-89.65 -9.4,-93.92z"/>
   <path class="fil0" d="M4271.52 471.64l1.15 -83.73 22.26 -0.31 1.23 83.93c3.59,8.65 14.25,6.62 26.11,6.56 6.77,-0.04 27.3,0.8 32.41,-0.83 14.69,-4.68 8.3,-43.74 8.29,-58.11 -0.01,-44.96 0.41,-90.12 -0.11,-135.05 -1.22,-3.58 -3.78,-6.33 -6.85,-7.94 -5.02,-2.63 -43.14,-1.84 -48.65,-1.37 -18.17,1.55 -12.31,28.05 -12.32,45.24l-23.55 -0.48c2.02,-9.23 1.61,-20.36 1.19,-30.04 -0.87,-19.7 -13.25,-14.44 -44.8,-14.7 -17.45,1.2 -22.8,-1.24 -22.41,13.59l-0.88 75.86c-13.99,2.6 -28.68,-1.12 -41.84,2.87 -6.32,12.67 -3.65,36.14 -3.24,52.02 1.42,9.85 3.97,12.68 11.12,14.07 8.72,1.68 22.93,0.62 33.41,-0.01l0.5 38.43c0.21,-0.17 -0.87,5.02 5.7,6.43 11.63,2.49 54.36,2.32 61.28,-6.43zm44.74 -136.6c5.55,-2.6 2.3,-30.46 2.15,-37.33l0.17 -0.01 21.08 0.15 -0.37 156.53 -20.73 -0.15c0.45,-15.17 2.75,-72.26 -1.59,-81.88 -4.93,-7.03 -1.68,-4.69 -9.49,-7.02 -12.25,-1.61 -43.46,-1.43 -54.31,1.57 -9.33,18.08 0.54,64.01 -4.1,88.15l-20.48 0.06c-3.44,-11.52 3.55,-33.81 -4.23,-41.63 -6.48,-6.52 -31.54,-2.04 -41.86,-4.18l0.04 -20.94c27.6,-4.41 45.14,11.52 44.86,-22.8 -0.16,-19.09 -1.8,-50.23 0.53,-68.02l21.53 0.12c1.53,15.94 -5.09,39.78 8.78,42.99 5.55,4.26 22.15,1.82 30.74,1.84 13.76,0.04 23.3,2.8 27.28,-7.45z"/>
   <path class="fil0" d="M4565.89 1010.52l-0.03 91.29 0.36 1.84c9.05,8.46 11,6.25 24.35,6.14 11.72,-0.1 23.43,0.06 35.16,-0.15 11.98,-6.85 7.97,-17.26 7.96,-44.51 15.11,-2.07 26.69,0.55 34.32,-0.47 10.09,-1.34 10.44,-8.84 10.51,-16.75 0.08,-9.43 -0.07,-23.62 1.44,-28.3l36.43 -0.2c6.1,-3.54 4.79,-1.52 7.09,-8.86l0.31 -42.97c0.05,-6.85 -1.75,-11.23 -7.4,-15.74 -24.59,-1.35 -51.03,-0.32 -75.85,-0.44 -12.81,-0.06 -26,-2.67 -28.99,8.52 -1.57,5.88 -0.62,28.9 -0.61,36.56l-29.93 0.65c-11.62,0.26 -15.11,0.03 -15.12,13.39zm89.42 -0.83c-1.6,9.18 -0.16,27.62 -0.08,31.93 -6.32,-0.22 -32.4,1.69 -35.96,1.61 -9.24,1.64 -8.45,5.86 -8.43,17.8 0.01,8.64 0.15,17.25 -0.01,25.95l-22.38 0.06 0.49 -67.55c7.52,-1.77 32.44,-1.73 39.45,-1.77 7.35,-8.21 3.23,-28.7 5.37,-41.71l6.77 -1.51 60.04 0.3 0.52 21.26c-13.02,1.72 -29.85,-1.53 -36.93,2.56 -6.82,0.53 -7.5,3.3 -8.85,11.07z"/>
   <path class="fil0" d="M4168.03 1043.17c-10.44,1.64 -8.8,11.4 -8.68,21.59l0.28 125.85 1.46 1.86c5.77,12.19 58.22,11.89 64.74,0 4.52,-5.87 0.76,-67.01 1.81,-79.56 0.14,-1.14 0.5,-3.91 5.82,-3.17l73.54 -0.01c9.04,-1.85 8.89,-1.88 10.23,-6.08 1.2,-17.84 0.48,-37.44 0.5,-55.49 0.02,-9.25 -0.02,-18.51 0.08,-27.76 0.14,-13.86 2.41,-18.48 -8.48,-22.64 -2.86,-3.01 -45.54,-1.11 -53.67,-1.12 -9.89,0 -19.77,0.02 -29.67,-0.05 -13.85,-0.1 -21.46,0.28 -22.9,16.08 -0.85,9.4 0.84,23.57 1.08,28.91 -6.84,-0.38 -32.92,-2.07 -36.14,1.59zm36.51 54.7c-0.5,15.26 -0.92,66.47 -0.44,79.1l-21.41 -0.03 0.84 -112.45 37.73 -0.47c4.36,-0.4 8.34,-5.84 7.29,-8.01l-1.89 -36.63 68.44 0.06 -0.09 67.67 -83.63 2.38c-6.58,-0.11 -6.63,1.76 -6.84,8.38z"/>
   <path class="fil0" d="M4339.98 736.81l0.24 94.89c7.7,8.96 9.02,7.55 24.59,7.44 11.75,-0.09 23.43,0.14 35.17,-0.34l5.78 -2.31c5.31,-19.99 2.52,-67.65 2.47,-91.74 -0.25,-13.12 0.25,-12.02 -6.4,-18.22 -11.66,-0.95 -23.43,-0.52 -35.15,-0.6 -9.88,-0.06 -26.73,-2.75 -26.7,10.88zm45.78 79.28l-22.07 0.01 -0.67 -67.23 21.92 -0.11 0.19 5.26 0.63 62.07z"/>
   <path class="fil0" d="M4253.19 1135.82c-6.18,7.39 -3.75,54.5 -2.13,57.55 2.7,5.08 4.12,4.51 10.41,5.78 12.82,2.57 43.34,0.73 51.55,0.73 30.94,-0.01 45.98,4.73 49.56,-10.65 1.57,-15.36 1.9,-43.04 -2.36,-55.08 -9.65,-2.51 -96.54,-4.36 -101.95,-0.07l-5.08 1.74zm19.46 20.44l67.22 -0.9c-0.25,8.18 0.74,14.11 -1.55,21.75l-65.56 -0.19 -0.11 -20.66z"/>
   <path class="fil0" d="M4475.3 659.05l-66.66 0.42 0.32 20.56c3.83,-0.32 18.66,-0.29 28.19,0.66 9.67,0.96 14.71,1.22 14.83,13.33 0.1,10.89 0.02,19.6 0.67,32.15l5.63 -0.22 17.17 -0.13c1.79,-6.41 0.32,-66.34 -0.15,-66.77zm-32.74 89.68l48.09 -0.21c6.77,-5.19 7.49,-3.7 7.78,-16.58 0.2,-8.49 -0.08,-17.48 -0.08,-26.03 0.01,-17.27 0.12,-34.55 0,-51.8 -0.03,-10.47 0.21,-13.29 -7.68,-16.91 -2.16,-3.2 -68.48,-2.26 -91.54,-1.47 -7.41,0.25 -9.35,0.86 -12.41,8.99 -4.72,12.49 -1.38,30.83 -0.46,43.49 0.76,10.31 3.04,13.92 13.34,15.42 9.54,1.38 24.8,-0.12 30.73,-0.27l0.94 38.21c3.39,4.46 4.57,6.47 11.29,7.16z"/>
   <path class="fil0" d="M4391.95 1197.58c1.74,1.11 1.13,1.07 4.53,1.81l85.06 0.55c21.56,-0.31 17.2,-12.91 16.89,-50.14 -0.1,-12.21 -0.84,-14.38 -7.76,-16.23 -6.75,-3.82 -29.24,-1.91 -37.14,-1.7l-0.14 -30.37c-0.39,-7.01 -1.38,-11.34 -9.07,-12.8 -4.35,-0.83 -11.47,-1.71 -23.97,-1.71 -10.98,0.01 -34.12,-3.07 -34.95,10.66 -1.28,15.87 -0.26,35.9 -0.24,52.27 0.02,12.72 -4.69,44.96 6.79,47.66zm42.76 -40.8l2.3 0.04 37.63 -0.58 0.19 20.17 -65.66 0.18 -1.5 -37.95 -0.6 -28.35 23.77 -0.85c3.2,4.2 -0.23,44.04 3.87,47.34z"/>
   <path class="fil0" d="M4626.1 928.78l86.5 -0.49c8.11,-0.04 10.99,-4.67 11.13,-12.2 0.14,-7.78 0.06,-15.53 0.09,-23.33 0.03,-11.96 3.7,-27.25 -9.58,-31.16 -26.24,-1.39 -62.29,-1.4 -88.64,-0.4 -19.4,0.74 -15.67,17.65 -14.78,52.06 0.32,12.71 4.07,15.59 15.28,15.52zm75.5 -22.15l-67.65 0.17c-2.13,-6.99 -2.37,-15.38 -1.11,-22.66l68.14 -0.38 0.62 22.87z"/>
   <path class="fil0" d="M4677.64 1149.08c5.83,-9.47 2.99,-27.13 2.81,-38.69l20.01 -0.26 0.32 66.53 -66.57 -0.03 -0.13 -20.08c6.6,0.05 29.58,1.13 35.29,-1.1 3.89,-1.27 3.81,-0.77 8.27,-6.37zm-38.96 50.82l77.71 -0.21c3.92,2.18 8.09,-1.72 7.59,-7.23 0.29,-16.64 -0.17,-33.3 -0.16,-49.94 0.01,-8.02 0,-16.04 0.02,-24.06 0.02,-4.21 0.25,-8.93 0.17,-13.04 -0.18,-8.87 -0.85,-12.95 -7.62,-18.23 -6.51,-0.15 -50.69,-1.93 -55.38,1.79 -10.49,8.33 -4.94,30.78 -4.8,43.28 -13.26,1.19 -46.75,-3.2 -44.88,8.73 -0.82,3.53 -0.43,12.26 -0.4,16.31 0.31,37.57 -7.93,42.83 27.75,42.6z"/>
   <path class="fil0" d="M4669.07 725.68l31.26 -0.1 0.81 -21.99 -64.31 0.23 -4.36 0.4c-1.8,12.7 0.48,23.92 -1.35,34.82 -14.28,6.55 -68.26,2.36 -88.62,2.39l0.06 27.43c9.33,-0.19 62.59,0.6 79.01,2.07l8.45 2.91c4.81,6.76 3.8,20.69 3.62,41.62l22.64 1.08c-0.23,-13.28 -2.26,-51.7 -0.02,-73.31 1.44,-13.88 1.13,-13 12.81,-17.55zm52.25 -33.34l-0.17 54.33c-12.28,2.98 -28.17,2.31 -42.13,1.96l-1.28 81.73c-2.38,13.82 -40.98,9.38 -54.05,8.96 -4.94,-0.17 -7.29,-1.51 -12.56,-7.62l-0.02 -38.01c-25.24,-0.29 -47.4,-0.08 -76.6,0.13 -15.19,0.11 -14.18,-3.16 -15.26,-18.47 -1.26,-17.92 -1.23,-32.8 1.45,-50.58 14.74,-9.76 81.62,-4.23 86.53,-3.43l0 -3.7c0.04,-9.93 1.17,-19.25 0.52,-28.06 -0.43,-5.85 3.28,-9.41 11.28,-9.24 22.41,0.48 68.69,-1.23 89.58,0.09 9.83,0.62 12.74,0.95 12.71,11.91z"/>
   <path class="fil0" d="M4409.63 1005.08c-3.82,-7.82 -2.44,-3.76 -9.25,-6.63 -4.83,-3.9 -29.7,-1.73 -38.31,-2.01 1.67,-8.8 1.15,-18.8 1.02,-27.97 -0.15,-11.08 -0.89,-14.24 -10.58,-16.23 -3.38,-3.35 -150.38,-1.77 -169,-1.19l0.02 -156.07 19.94 0.3 -0.22 36.82c3.5,8.72 12.73,7.13 24.62,7.06 9.67,-0.05 20.27,0.4 29.78,0.01 24.19,-0.99 11.65,-25.14 15.75,-45.14l21.13 -1.17 0.38 68.49c-15.02,1.99 -74.51,-2.18 -82.38,0.05 -2.26,0.75 -5.13,3.41 -6.62,5.94 -2.73,5.01 -1.23,49.98 -0.29,55.02 3.51,2.77 10.04,7.1 20.37,6.53 36.64,-2.07 124.69,1.93 159.77,0.51 22.86,-0.93 19.29,0.3 21.05,-17.69 0.85,-8.68 2,-20.13 1.5,-27.28l26.75 0.32c-0.35,5.83 -1.92,20.16 -0.72,29.13 2.15,16.11 5.34,15.45 19.26,15.34 21.22,-2.28 47.11,3.39 44.66,-11.65l0.24 -33.09 21.21 -0.18 1.06 32.52 1.09 6.15c2.25,6.2 6.77,4.5 13.26,6.17 2.27,0.29 6.71,0.17 9.15,0.15 28.65,-0.3 19.1,-0.15 21.47,4.16l0.77 17.83 -84.97 0.02c-2.23,2.72 -4.79,3.39 -4.95,8.28 -0.72,22.17 -0.45,65.12 -1.2,81.3l-66.26 0.37 0.5 -36.17zm86.88 52.34l1.81 -3.69 0.05 -77.72c22.68,-1.36 49.32,0.8 66.79,-2.46 15.44,-2.87 23.46,-2.48 23.31,-25.28 -0.05,-7.4 0.84,-18.74 0,-26.68 -1.07,-10.11 -0.5,-12.74 -10.49,-14.63 -10.32,-1.94 -19.58,1.52 -31.82,-1.12l-4.17 -0.73c1.36,-9.42 0.49,-24.71 0.69,-35.08 0.14,-7.28 -1.02,-6.36 -8.5,-7.49 -15.14,-2.29 -45.3,-3.29 -53.77,0.61 -7.91,9.04 -5.41,28.61 -4.96,43.13l-23.02 0.25c0.85,-7.21 1.3,-22.06 -0.21,-31.19 -1.17,-6.99 2.68,-12.91 -5.06,-14.21 -6.47,-0.69 -49.19,-0.54 -53.92,0.85 -5.17,1.51 -5.37,6.73 -6.31,13.29 -1.45,10.04 -1.74,23.23 -1.68,31.06l-158.56 0.16 1.61 -22.91c14,-0.21 55.85,-1.19 71.77,0.69 19.2,0.13 16.6,-9.29 17.63,-19.41 2.52,-25.03 -0.42,-81.59 -2.45,-88.69 -3.21,-4.36 -2.03,-4.43 -9.69,-5.06 -9.85,-0.81 -48.61,-4.68 -51.29,4.83 -2.79,9.85 -0.7,33.48 -2.55,39.98 -11.36,0.51 -19.26,1.65 -24.02,-2.7 -0.52,-4.82 -0.35,-11.22 -0.28,-16.65 0.12,-10.93 2.09,-21.29 -8.77,-25.36 -14.32,-0.01 -52.52,-5.66 -56.7,7 -4.78,6 -2.61,14.76 -2.56,22.04l0.24 164.65c2.43,8.54 8.6,9.38 18.55,9.57l150.39 -0.01 11.22 0.31c0.33,8.66 0.12,16.98 0.09,25.36 -0.05,13.68 -0.94,14.39 10.14,18.92 9.73,1.85 27.87,-3.71 34.77,3.2 0.8,5.94 -1.34,32.7 2.15,35.17 5.37,9.09 7.86,7.29 20.4,7.16 8.65,-0.1 17.3,-0.07 25.96,-0.08 18.5,-0.01 37,0.05 55.5,-0.07l1.87 -1.36c5.35,-2.45 3.18,-0.37 5.84,-5.65z"/>
   <path class="fil0" d="M3865.74 545.52l0.36 -202.56 197.21 -0.14c6.66,1.69 1.93,-1.63 5.46,4.17l-0.09 198.29 -197.9 0.2 -5.04 0.04zm226.21 14.95c1.94,-69.52 2.76,-146.31 0.75,-215.99 -0.31,-10.82 -1.71,-20.44 -5.91,-22.81 -4.38,-2.46 -233.94,-4.4 -239.83,1.49 -6.11,6.12 -3.13,101.11 -3.13,118.19 0,15.25 -1.44,114.25 1.09,120.4 4.76,11.58 39.56,6.49 53.63,6.5 59.32,0.04 127.89,1.44 185.22,-0.12l8.16 -0.14 0.02 -7.52z"/>
   <path class="fil0" d="M4430.49 560.46l0.81 -231.97c2.63,-7.21 5.15,-7.72 5.38,-7.93 35.27,-3.42 85.55,-0.53 122.44,-0.53 18.68,0 110.91,-4.31 117.2,4.1 4.35,5.82 2.98,233.08 0.94,235.96 -1.69,5.43 -0.94,7.11 -9.38,8.1 -3.62,0.43 -10.42,0.08 -14.36,0.06 -69.38,-0.29 -148.66,1.81 -215.25,-0.06 -3.02,-2.05 -7.34,-7.15 -7.78,-7.73zm187.94 -15.57l-165.05 -0.18 -0.3 -197.72 -0.65 -4.48 206.59 -0.26 1.15 184.11c-0.42,24.84 -4.76,14.58 -41.74,18.53z"/>
   <path class="fil0" d="M3866.26 928.55l4.52 0.66 198.45 -0.6 0.1 199.11c-4.25,5.63 -0.05,3.04 -7.87,4.63l-195.72 -0.17 0.52 -203.63zm-14.8 224.06c4.78,4.45 180.39,1.81 215.5,2.06 14.94,0.11 19.79,3.36 24.14,-8.45l0.87 -232c-0.38,-0.49 -2.44,-3.18 -3.45,-4.2 -1.05,-1.04 -3.71,-3.07 -4.2,-3.44 -70.22,-1.87 -145.51,-2.33 -215.93,-1.36 -10.66,0.14 -20.17,1.58 -22.93,6.53 -3.28,5.89 -3.51,227.16 0.13,238.36 3.86,4.39 -0.35,2.44 5.87,2.5z"/>
  </g>
 </g>
</svg>
