<?xml version="1.0" encoding="UTF-8"?>
<!DOCTYPE svg PUBLIC "-//W3C//DTD SVG 1.1//EN" "http://www.w3.org/Graphics/SVG/1.1/DTD/svg11.dtd">
<!-- Creator: CorelDRAW 2019 (64-Bit) -->
<svg xmlns="http://www.w3.org/2000/svg" xml:space="preserve" width="52mm" height="52mm" version="1.1" style="shape-rendering:geometricPrecision; text-rendering:geometricPrecision; image-rendering:optimizeQuality; fill-rule:evenodd; clip-rule:evenodd"
viewBox="0 0 5200 5200"
 xmlns:xlink="http://www.w3.org/1999/xlink"
 xmlns:xodm="http://www.corel.com/coreldraw/odm/2003">
 <defs>
  <style type="text/css">
   <![CDATA[
    .fil0 {fill:#FEFEFE}
   ]]>
  </style>
 </defs>
 <g id="Layer_x0020_1">
  <metadata id="CorelCorpID_0Corel-Layer"/>
  <g id="_1721636240">
   <path class="fil0" d="M928.73 3667.56c76.87,25.47 497.81,490.84 1660.99,490.87 488.69,0 1084.7,-104.39 1493.14,-377.82 50.97,-34.12 122.04,-98.84 167.29,-115.17 30.38,94.56 78.61,157.61 37.23,282.02 -72.44,217.74 -333.09,370.26 -545.01,465.38 -731.49,328.32 -2150.91,294.44 -2710.3,-256 -52.07,-51.25 -105.12,-114.07 -136.77,-200.13 -47.83,-130.07 0.14,-189.07 33.43,-289.15zm985.4 -43.14c-262.63,-54.91 -510.93,-142.61 -706.28,-266.92 -161.7,-102.88 -434.96,-317.5 -286.07,-604.4 114.15,32.38 223.61,65.29 351.28,91.02 245.02,49.4 105.81,10.14 264.64,171.02 129.89,131.59 334.01,250.1 553.55,331.92 220.05,82 465.65,137.67 721.01,165.18 458.04,49.38 595.58,-10.32 822.59,2.51 -547.23,180.37 -1115.69,236.17 -1720.72,109.67zm287.42 -722.97c539.21,-67.02 1335.91,-203.68 1581.16,-705.87 20.95,-42.88 26.72,-110.87 55.76,-143.76 3.59,-4.05 231.93,-131.29 261.26,-150.2 48.04,-31 77.72,-57.34 119.72,-92.28 39.85,-33.16 63.36,-70.32 103.98,-97.97 191.02,49.72 454.23,250.03 532.31,367.82 176.89,266.95 -17.73,472.81 -172.38,593.08 -317.12,246.6 -900.25,394.36 -1407.64,394.36 -289.62,0 -852.35,-43.59 -1074.17,-165.18zm-297.83 -458.45c-491.28,0.1 -1026.89,-130.36 -1357.05,-357.67 -519.92,-357.96 -284.16,-700.76 166.33,-939.65 23.4,115.63 -10.84,217.28 27.76,346.69 73.34,245.95 326.98,428.4 568.76,541.15 582.06,271.46 1088.49,270.33 1701.04,234 -412.35,130.92 -639.57,175.39 -1106.84,175.48zm376.32 -2167.55c722.8,-72.66 1598.44,110.03 1932.09,526.65 263.67,329.22 -104.87,623.69 -334.79,739.86 -297.32,150.25 -598.49,228.38 -971.05,263.64 -729.57,69.01 -1602.22,-109 -1938.83,-527.72 -264.4,-328.89 105.46,-625.09 334.52,-739.81 313.27,-156.92 589.26,-223.54 978.06,-262.62zm2599.09 1573.99c-48.11,-23.68 -64.8,-46.66 -111.21,-81.51 -134.84,-101.27 -317.14,-172.27 -353.92,-203.99 52.57,-208.58 90.33,-577.39 -23.43,-778.28 -96.46,-170.37 -280.09,-307.2 -478.65,-406.7 -463.69,-232.33 -939.7,-273.37 -1516.88,-271.14 -38.61,10.62 -226.6,20.18 -296.75,29.7 -102.82,13.96 -198.83,31.65 -295.08,53.79 -318.82,73.38 -725.16,233.32 -925.23,471.72 -206.2,245.68 -87.84,270.78 -198.11,325.26 -41.85,20.68 -82.11,38.86 -117.14,57.98 -460.25,251.26 -480.07,500.39 -467.32,929.8 14.16,476.11 601.65,662.49 669.65,722.88 -53.12,180.46 -45.81,233.62 -46.28,436.55 -0.56,239.25 24.64,226.16 104.56,399.12 -59.07,128.18 -103.18,154.79 -104.74,336.53 -3.43,395.98 -22.29,612.45 435.64,886.84 745.8,446.91 2125.33,447.31 2870.99,0.01 457.36,-274.34 439,-490.41 435.6,-886.85 -1.14,-133.34 -41.19,-252.69 -110.34,-333.66 15.36,-43.16 34.5,-61.43 56.89,-105.89 17.39,-34.53 30.16,-92.79 43.98,-118.31 35.03,-64.65 371.57,-143.83 548.29,-437.07 115.08,-190.97 126.25,-641.48 18.88,-835.08 -52.35,-94.43 -125.7,-156.1 -139.4,-191.7z"/>
   <path class="fil0" d="M1916.58 1655.25c-1.22,6.5 4.16,10.56 10.34,10.47 141.6,0 283.21,-0.12 424.82,-0.01 19.92,0.01 39.51,5.4 44.37,-13.79l0.43 -431.95c0.33,-23.67 3.76,-31.27 -21.56,-32.73 -77.22,-4.47 -401.59,-2.94 -445.13,-0.94 -19.37,5.75 -13.49,25.58 -13.48,46.82l0.21 422.13zm31.19 -21.52l1.03 -415.82 415.47 0.78 0.23 412.54c-12.64,3.61 -397.81,-0.03 -416.73,2.5z"/>
   <path class="fil0" d="M2356.97 386.2l6.96 0.71 0.34 414.86 -415.56 2.14 -0.95 -11.31 0.02 -405.87 406.57 -0.65 2.62 0.12zm-427.77 447.99c75.5,3.26 157.49,0.3 233.72,0.38 26.34,0.02 219.9,4.13 228.7,-4.7 10.53,-10.56 4.71,-90.8 4.71,-110.67 0.02,-109.07 3.46,-250.36 -0.36,-352.33 -6.56,-13.41 -14.77,-12.14 -49.48,-12.14l-178.32 0.02c-80.25,-0.01 -161.08,-0.95 -241.25,0.14 -7.8,-1.47 -11.2,2.69 -10.33,10.35l0.03 453.61c3.29,18.12 3.66,13.77 12.58,15.34z"/>
   <path class="fil0" d="M2619.92 790.87l-1.21 11.14 -30.32 -0.33 -0.16 -35.29c-0.17,-15.49 -0.57,-26.07 -16.48,-27.92 -9.74,-1.14 -25.98,-0.07 -36.45,-0.14l-11.38 0.02c1.53,-52.99 5.86,-64.38 -27.84,-64.27 -21.96,0.08 -60.98,-7.52 -68.15,13.67l-0.19 178.15c-24.54,0.08 -76.86,-3.15 -107.4,0.2 -12.84,1.41 -20.82,-0.75 -21.76,10.8 -2.12,25.94 -2.96,58.68 4.74,82.14 40.95,12.66 139.16,-0.03 185.24,2.64 9.91,0.17 3.4,48 4.12,56.42 6.08,5.3 14,7.86 22.67,8.97 26.91,3.44 99.35,0.38 127.46,-1.29 7.51,0.95 10.23,-3.3 11.43,-6.26 0.06,-34.38 -1.47,-81.51 -1.41,-120.66 15.09,1.12 38.5,3.22 50.75,-1.2 8.18,-2.85 10.79,-6.72 11.33,-7.19 5.59,-38.68 1.41,-110.74 1.38,-152.91 -0.01,-20.58 7.03,-57.87 -13.54,-62.59 -10.62,-2.44 -64.64,-1.72 -73.74,0.98 -13.98,11.05 -9.06,33.27 -9.05,53.74 0,20.39 0.01,40.79 -0.04,61.18zm-158.97 86.87l0.46 -170.91 29.29 0.57c-2.38,77.11 -1.46,59.37 60.36,63.42 16.94,10.04 -10.85,57.97 18.58,63.39 13.47,2.47 63.8,0.57 77.04,-1.54l5.95 -7.26 0.44 -118.16 29.73 -0.46c-0.04,15.15 0.26,157.63 -0.86,159.42 -11.19,-0.31 -22.78,-0.35 -33.99,-0.3 -16.25,0.08 -23.67,-0.42 -27.2,14.54 -6.45,27.34 1.09,81.94 -1.34,113.63l-95.99 0.25c1.27,-11.89 0.69,-24.51 0.75,-36.66 0.08,-12.69 -3.51,-27.52 -16.87,-27.57l-173.6 -0.68 -0.32 -30.49c14.26,0.58 110.43,3.45 114.45,-1.87 11.49,-2.9 13.1,-9.95 13.12,-19.32z"/>
   <path class="fil0" d="M2748.13 367.86c-3.93,99.49 -0.36,241.46 -0.35,348.72 0,9.53 -2.28,100.45 1.94,107.95 2.37,4.18 3.02,7.62 7.95,6.68 8.46,6.07 407.98,5.44 455.43,2.91 11.81,-2.86 13.88,-7.31 14.55,-20.51l-1.13 -458.59 -415.85 -0.31c-18.47,-0.01 -57.88,-4.6 -62.54,13.15zm448.31 423.12l0.05 11.2 -3.69 0.45 -412.33 -0.52 -0.78 -415.07 416.47 -0.71 0.19 227.97 0.09 176.68z"/>
   <path class="fil0" d="M2203.37 963.99l32.8 -1.19c-0.74,21.04 -2.72,45.65 4.88,60.87 9.32,2.45 20.8,2.98 32.03,2.74 31.82,-0.69 26.2,-2.62 27.01,7.42l-0.16 87.01 -31.07 -0.13c0.8,-8.46 3.14,-45.92 -1.36,-49.39 -7.45,-20.78 -37.41,-13.02 -60.03,-13.12 -19.49,-0.09 -26.07,-3.51 -34.71,10.23l-2.23 52.14 -221.23 0.53 -0.14 -94.3 29.21 -0.2c-1.27,33.69 0.62,31.77 4.73,60.18 19.3,5.77 69.89,6.49 89.46,0.71 7.58,-16.41 3.85,-108.57 3.85,-134.92 -0.26,-14.93 0.15,-17.43 -10.58,-21.04 -11.69,-7.09 -96.03,-2.78 -116.9,-2.45l0.12 -29.96 159.29 0.94c-0.23,12.29 -1.71,104.24 1.31,116.36l2.27 6.6c17.63,1.03 49.54,3.9 70.44,3.34 13.64,-0.36 22.26,-11.27 22.24,-26.43 -0.02,-11.8 0.91,-24.7 -1.23,-35.94zm115.87 30.95c-7.4,-6.25 -38.03,-2.71 -49.58,-1.17 0.88,-9.71 -3.17,-42.56 -2.16,-51.15 0.46,-9.46 -4.17,-10.78 -9.53,-10.95l-76.68 -1.14c-9.32,0.49 -9.47,5.4 -9.53,27.17 -0.03,10.14 0.14,30.31 0.02,36.17l-31.22 -0.55 -1.13 -109.43c-0.1,-9.44 1.31,-10.3 -7.06,-15.53 -14.58,-4.77 -179.53,-3.16 -205.45,-1.77 -17.85,13.54 -15.68,88.4 -0.65,94.27 12.55,4.91 94.96,-0.75 117.94,2.31l-0.08 94.26c-3.15,0.43 -11.19,1.29 -14.81,1.22 -9.86,-0.35 -16.6,0.1 -17.01,-6.44 0.1,-21.38 4.87,-44.13 -8.82,-56.37 -12.78,-3.97 -49.05,-2.38 -69.71,-1.71 -19.67,0.65 -17.57,17.07 -17.46,31.79l0.04 94.48c-0.13,16.88 -2.76,28.18 12.84,33.49l259.96 -0.12c10.86,-2.93 11.88,-11.89 13.09,-23.16 1.33,-12.39 2.28,-27.6 2.05,-40.69l31.91 0.7c-0.45,12.25 -0.17,27.21 1.01,39.57 1.26,13.05 3.8,23.22 17.32,24.27 14.58,1.13 38.79,1.51 56.95,-0.45 22.1,-2.39 18.92,-3.62 21.06,-25.97 4.19,-43.56 4.8,-127.06 -13.31,-133.1z"/>
   <path class="fil0" d="M2586.63 633.65l1.63 -118.67 31.55 -0.44 1.74 118.95c5.09,12.27 20.2,9.38 37,9.3 9.61,-0.04 38.7,1.14 45.94,-1.17 20.82,-6.63 11.77,-61.99 11.76,-82.36 -0.02,-63.72 0.57,-127.72 -0.16,-191.4 -1.73,-5.07 -5.37,-8.98 -9.72,-11.26 -7.1,-3.72 -61.13,-2.6 -68.94,-1.93 -25.76,2.19 -17.46,39.75 -17.47,64.11l-33.38 -0.68c2.87,-13.08 2.3,-28.86 1.69,-42.58 -1.23,-27.92 -18.78,-20.46 -63.49,-20.83 -24.73,1.7 -32.31,-1.76 -31.76,19.26l-1.25 107.52c-19.82,3.69 -40.64,-1.6 -59.3,4.06 -8.96,17.96 -5.17,51.22 -4.59,73.74 2.01,13.95 5.63,17.97 15.76,19.93 12.36,2.38 32.5,0.88 47.35,-0.02l0.71 54.47c0.3,-0.24 -1.23,7.12 8.07,9.11 16.5,3.54 77.05,3.29 86.86,-9.11zm63.41 -193.59c7.86,-3.69 3.25,-43.18 3.04,-52.91l0.25 -0.01 29.88 0.2 -0.53 221.86 -29.39 -0.22c0.65,-21.5 3.91,-102.42 -2.25,-116.04 -6.99,-9.97 -2.38,-6.65 -13.44,-9.96 -17.37,-2.28 -61.6,-2.02 -76.97,2.23 -13.23,25.62 0.75,90.72 -5.81,124.94l-29.04 0.08c-4.87,-16.33 5.03,-47.92 -5.98,-59 -9.2,-9.24 -44.71,-2.9 -59.33,-5.93l0.05 -29.68c39.11,-6.25 63.98,16.34 63.58,-32.31 -0.23,-27.06 -2.55,-71.19 0.76,-96.41l30.51 0.18c2.16,22.58 -7.22,56.38 12.43,60.93 7.87,6.03 31.41,2.58 43.57,2.61 19.5,0.05 33.02,3.96 38.67,-10.56z"/>
   <path class="fil0" d="M3003.83 1397.4l-0.04 129.37 0.51 2.62c12.83,11.99 15.59,8.85 34.51,8.69 16.62,-0.13 33.2,0.1 49.83,-0.2 16.98,-9.71 11.29,-24.47 11.28,-63.08 21.42,-2.94 37.82,0.77 48.64,-0.67 14.3,-1.9 14.8,-12.54 14.9,-23.74 0.11,-13.37 -0.09,-33.47 2.04,-40.11l51.64 -0.29c8.64,-5.02 6.78,-2.14 10.04,-12.55l0.44 -60.9c0.08,-9.7 -2.47,-15.91 -10.48,-22.31 -34.87,-1.91 -72.33,-0.45 -107.51,-0.62 -18.16,-0.09 -36.84,-3.79 -41.09,12.07 -2.22,8.33 -0.87,40.96 -0.85,51.82l-42.43 0.92c-16.46,0.36 -21.42,0.04 -21.43,18.98zm126.73 -1.18c-2.27,13 -0.22,39.14 -0.1,45.25 -8.96,-0.31 -45.92,2.4 -50.97,2.29 -13.1,2.32 -11.98,8.3 -11.95,25.22 0.02,12.25 0.21,24.46 -0.01,36.78l-31.72 0.08 0.69 -95.73c10.67,-2.51 45.98,-2.45 55.91,-2.51 10.43,-11.64 4.58,-40.68 7.61,-59.11l9.6 -2.15 85.1 0.43 0.73 30.14c-18.45,2.42 -42.31,-2.17 -52.34,3.62 -9.67,0.75 -10.63,4.68 -12.55,15.69z"/>
   <path class="fil0" d="M2439.96 1443.66c-14.8,2.34 -12.47,16.17 -12.3,30.61l0.39 178.36 2.07 2.64c8.17,17.28 82.51,16.85 91.76,0 6.4,-8.32 1.08,-94.97 2.55,-112.77 0.21,-1.61 0.72,-5.53 8.26,-4.48l104.23 -0.02c12.8,-2.62 12.59,-2.67 14.5,-8.61 1.7,-25.28 0.67,-53.07 0.71,-78.65 0.02,-13.11 -0.04,-26.22 0.1,-39.34 0.21,-19.65 3.42,-26.19 -12.01,-32.09 -4.06,-4.27 -64.55,-1.57 -76.06,-1.58 -14.02,0 -28.03,0.02 -42.05,-0.08 -19.63,-0.13 -30.43,0.4 -32.46,22.8 -1.21,13.32 1.19,33.4 1.53,40.97 -9.7,-0.54 -46.66,-2.94 -51.22,2.24zm51.74 77.53c-0.71,21.63 -1.3,94.21 -0.63,112.11l-30.34 -0.04 1.19 -159.38 53.47 -0.67c6.19,-0.56 11.82,-8.26 10.34,-11.34l-2.67 -51.92 96.99 0.09 -0.12 95.91 -118.53 3.36c-9.33,-0.15 -9.4,2.5 -9.7,11.88z"/>
   <path class="fil0" d="M2683.66 1009.47l0.34 134.49c10.91,12.7 12.78,10.7 34.85,10.54 16.65,-0.12 33.21,0.19 49.85,-0.49l8.18 -3.26c7.54,-28.33 3.58,-95.88 3.51,-130.03 -0.36,-18.58 0.34,-17.03 -9.07,-25.81 -16.53,-1.36 -33.21,-0.75 -49.82,-0.86 -14.01,-0.08 -37.89,-3.89 -37.84,15.42zm64.88 112.37l-31.28 0.01 -0.95 -95.29 31.06 -0.15 0.28 7.45 0.89 87.98z"/>
   <path class="fil0" d="M2560.65 1574.97c-8.76,10.49 -5.31,77.25 -3.01,81.58 3.82,7.19 5.83,6.39 14.75,8.18 18.17,3.66 61.43,1.04 73.06,1.04 43.85,-0.01 65.16,6.7 70.24,-15.09 2.22,-21.78 2.69,-61 -3.34,-78.06 -13.69,-3.56 -136.84,-6.19 -144.5,-0.1l-7.2 2.45zm27.58 28.98l95.27 -1.28c-0.35,11.59 1.05,20 -2.2,30.83l-92.91 -0.27 -0.16 -29.28z"/>
   <path class="fil0" d="M2875.44 899.26l-94.47 0.61 0.45 29.13c5.43,-0.45 26.44,-0.42 39.95,0.93 13.7,1.37 20.85,1.73 21.02,18.9 0.15,15.43 0.03,27.78 0.96,45.56l7.97 -0.31 24.33 -0.18c2.54,-9.09 0.45,-94.03 -0.21,-94.64zm-46.4 127.1l68.16 -0.29c9.6,-7.36 10.61,-5.25 11.03,-23.5 0.28,-12.04 -0.12,-24.77 -0.12,-36.9 0.02,-24.46 0.16,-48.96 0,-73.41 -0.05,-14.84 0.3,-18.83 -10.88,-23.96 -3.06,-4.53 -97.07,-3.2 -129.74,-2.09 -10.5,0.35 -13.26,1.22 -17.59,12.74 -6.68,17.71 -1.96,43.7 -0.65,61.64 1.07,14.61 4.3,19.74 18.9,21.85 13.53,1.96 35.16,-0.17 43.56,-0.38l1.33 54.16c4.81,6.33 6.47,9.17 16,10.14z"/>
   <path class="fil0" d="M2757.31 1662.51c2.47,1.58 1.6,1.52 6.43,2.57l120.55 0.78c30.56,-0.44 24.37,-18.3 23.94,-71.06 -0.15,-17.32 -1.2,-20.38 -11.01,-23.01 -9.56,-5.42 -41.43,-2.7 -52.63,-2.41l-0.2 -43.04c-0.55,-9.93 -1.96,-16.07 -12.86,-18.15 -6.16,-1.17 -16.25,-2.42 -33.97,-2.41 -15.55,0 -48.36,-4.35 -49.53,15.1 -1.82,22.49 -0.37,50.88 -0.34,74.08 0.03,18.03 -6.65,63.73 9.62,67.55zm60.6 -57.82l3.26 0.06 53.33 -0.82 0.28 28.58 -93.07 0.26 -2.12 -53.79 -0.85 -40.18 33.69 -1.21c4.54,5.95 -0.33,62.42 5.48,67.1z"/>
   <path class="fil0" d="M3089.17 1281.55l122.59 -0.69c11.5,-0.06 15.57,-6.63 15.77,-17.3 0.21,-11.02 0.09,-22.01 0.13,-33.07 0.05,-16.94 5.24,-38.62 -13.57,-44.15 -37.19,-1.97 -88.28,-1.99 -125.63,-0.57 -27.5,1.05 -22.21,25.02 -20.95,73.78 0.46,18.01 5.77,22.09 21.66,22zm107.01 -31.39l-95.88 0.23c-3.02,-9.9 -3.37,-21.79 -1.59,-32.11l96.58 -0.54 0.89 32.42z"/>
   <path class="fil0" d="M3162.22 1593.77c8.26,-13.42 4.22,-38.45 3.98,-54.83l28.35 -0.37 0.45 94.29 -94.34 -0.04 -0.18 -28.46c9.35,0.07 41.91,1.61 50.01,-1.56 5.51,-1.8 5.4,-1.09 11.73,-9.03zm-55.22 72.04l110.14 -0.31c5.54,3.09 11.46,-2.44 10.74,-10.25 0.43,-23.57 -0.23,-47.2 -0.21,-70.78 0.01,-11.36 -0.01,-22.73 0.03,-34.09 0.01,-5.98 0.35,-12.65 0.23,-18.49 -0.26,-12.57 -1.2,-18.34 -10.79,-25.82 -9.24,-0.23 -71.84,-2.75 -78.5,2.53 -14.86,11.8 -6.99,43.62 -6.79,61.33 -18.8,1.69 -66.26,-4.53 -63.62,12.37 -1.16,5.01 -0.61,17.39 -0.56,23.13 0.43,53.24 -11.24,60.69 39.33,60.38z"/>
   <path class="fil0" d="M3150.06 993.7l44.31 -0.15 1.14 -31.15 -91.14 0.32 -6.17 0.56c-2.55,18 0.67,33.91 -1.92,49.36 -20.24,9.28 -96.74,3.34 -125.59,3.38l0.08 38.87c13.22,-0.27 88.7,0.85 111.98,2.95l11.97 4.11c6.82,9.58 5.38,29.33 5.13,58.99l32.09 1.53c-0.32,-18.82 -3.21,-73.26 -0.03,-103.9 2.04,-19.67 1.6,-18.42 18.15,-24.87zm74.06 -47.25l-0.24 77c-17.4,4.22 -39.93,3.27 -59.71,2.77l-1.82 115.84c-3.37,19.58 -58.07,13.29 -76.59,12.69 -7.01,-0.23 -10.34,-2.14 -17.81,-10.79l-0.03 -53.87c-35.77,-0.41 -67.18,-0.12 -108.57,0.18 -21.51,0.15 -20.09,-4.48 -21.62,-26.17 -1.78,-25.4 -1.74,-46.49 2.05,-71.69 20.89,-13.83 115.68,-5.99 122.64,-4.86l0.01 -5.25c0.06,-14.06 1.65,-27.28 0.74,-39.76 -0.61,-8.3 4.64,-13.34 15.98,-13.1 31.75,0.68 97.35,-1.75 126.95,0.12 13.94,0.89 18.06,1.36 18.02,16.89z"/>
   <path class="fil0" d="M2782.38 1389.68c-5.43,-11.08 -3.47,-5.32 -13.12,-9.39 -6.85,-5.53 -42.09,-2.45 -54.29,-2.84 2.36,-12.48 1.62,-26.66 1.44,-39.64 -0.22,-15.72 -1.27,-20.19 -14.99,-23.02 -4.79,-4.75 -213.13,-2.51 -239.53,-1.68l0.03 -221.2 28.27 0.43 -0.32 52.19c4.96,12.35 18.04,10.1 34.9,10 13.7,-0.07 28.73,0.57 42.21,0.01 34.27,-1.4 16.51,-35.63 22.31,-63.98l29.95 -1.64 0.54 97.06c-21.28,2.82 -105.6,-3.08 -116.75,0.07 -3.21,1.07 -7.28,4.84 -9.38,8.42 -3.88,7.1 -1.75,70.83 -0.42,77.98 4.98,3.93 14.24,10.07 28.87,9.25 51.94,-2.92 176.72,2.74 226.44,0.72 32.4,-1.31 27.33,0.43 29.83,-25.07 1.2,-12.3 2.83,-28.52 2.13,-38.66l37.9 0.45c-0.48,8.27 -2.72,28.57 -1.02,41.28 3.06,22.84 7.58,21.9 27.31,21.74 30.07,-3.22 66.77,4.82 63.29,-16.5l0.35 -46.9 30.05 -0.26 1.51 46.09 1.53 8.72c3.19,8.79 9.6,6.37 18.81,8.74 3.2,0.41 9.5,0.25 12.95,0.21 40.61,-0.41 27.09,-0.21 30.44,5.91l1.1 25.27 -120.43 0.03c-3.17,3.84 -6.79,4.8 -7.02,11.72 -1.02,31.42 -0.64,92.3 -1.7,115.24l-93.9 0.51 0.71 -51.26zm123.12 74.19l2.57 -5.24 0.06 -110.14c32.16,-1.94 69.91,1.13 94.67,-3.49 21.88,-4.07 33.25,-3.52 33.04,-35.83 -0.07,-10.49 1.18,-26.56 -0.01,-37.81 -1.51,-14.34 -0.71,-18.06 -14.86,-20.73 -14.63,-2.75 -27.75,2.15 -45.1,-1.6l-5.91 -1.02c1.93,-13.36 0.69,-35.02 0.98,-49.73 0.2,-10.32 -1.45,-9.02 -12.05,-10.62 -21.46,-3.23 -64.21,-4.66 -76.2,0.87 -11.22,12.82 -7.67,40.55 -7.04,61.13l-32.63 0.35c1.21,-10.22 1.85,-31.27 -0.3,-44.2 -1.64,-9.91 3.8,-18.29 -7.16,-20.15 -9.17,-0.96 -69.71,-0.76 -76.42,1.21 -7.32,2.15 -7.61,9.55 -8.95,18.84 -2.05,14.23 -2.47,32.92 -2.37,44.03l-224.73 0.21 2.28 -32.47c19.85,-0.29 79.16,-1.68 101.72,0.98 27.21,0.2 23.54,-13.16 24.98,-27.51 3.59,-35.47 -0.59,-115.64 -3.47,-125.69 -4.54,-6.19 -2.86,-6.28 -13.73,-7.18 -13.96,-1.15 -68.89,-6.62 -72.69,6.86 -3.95,13.95 -0.99,47.44 -3.62,56.65 -16.09,0.73 -27.29,2.34 -34.04,-3.83 -0.73,-6.83 -0.49,-15.9 -0.4,-23.6 0.18,-15.48 2.96,-30.17 -12.42,-35.94 -20.29,0 -74.43,-8.01 -80.36,9.93 -6.77,8.5 -3.69,20.91 -3.62,31.24l0.34 233.35c3.44,12.11 12.18,13.29 26.28,13.56l213.15 -0.01 15.9 0.44c0.47,12.28 0.16,24.07 0.12,35.95 -0.06,19.38 -1.33,20.38 14.38,26.8 13.78,2.63 39.5,-5.25 49.28,4.55 1.13,8.41 -1.9,46.34 3.04,49.84 7.61,12.88 11.14,10.32 28.91,10.14 12.26,-0.13 24.53,-0.09 36.79,-0.1 26.22,-0.02 52.45,0.07 78.66,-0.11l2.66 -1.93c7.58,-3.47 4.5,-0.52 8.27,-8z"/>
   <path class="fil0" d="M2011.54 738.36l0.49 -287.08 279.51 -0.19c9.44,2.39 2.73,-2.33 7.73,5.9l-0.13 281.04 -280.47 0.28 -7.13 0.05zm320.59 21.19c2.74,-98.53 3.92,-207.36 1.07,-306.11 -0.45,-15.34 -2.43,-28.98 -8.39,-32.33 -6.21,-3.49 -331.56,-6.25 -339.9,2.11 -8.65,8.68 -4.43,143.3 -4.43,167.51 0,21.61 -2.05,161.91 1.54,170.64 6.74,16.4 56.06,9.19 76,9.21 84.08,0.05 181.27,2.04 262.52,-0.17l11.57 -0.2 0.02 -10.66z"/>
   <path class="fil0" d="M2811.94 759.54l1.14 -328.77c3.73,-10.22 7.3,-10.94 7.63,-11.24 49.98,-4.85 121.25,-0.75 173.53,-0.75 26.48,0 157.18,-6.11 166.1,5.81 6.17,8.25 4.23,330.34 1.33,334.42 -2.39,7.7 -1.32,10.08 -13.29,11.49 -5.14,0.6 -14.77,0.1 -20.35,0.08 -98.34,-0.42 -210.69,2.56 -305.07,-0.09 -4.28,-2.91 -10.41,-10.13 -11.02,-10.95zm266.35 -22.07l-233.92 -0.25 -0.42 -280.23 -0.93 -6.34 292.8 -0.38 1.63 260.94c-0.6,35.2 -6.74,20.66 -59.16,26.26z"/>
   <path class="fil0" d="M2012.27 1281.22l6.4 0.94 281.26 -0.85 0.15 282.19c-6.03,7.98 -0.09,4.3 -11.17,6.56l-277.39 -0.24 0.75 -288.6zm-20.98 317.55c6.77,6.31 255.66,2.57 305.42,2.93 21.18,0.15 28.05,4.76 34.21,-11.97l1.23 -328.81c-0.53,-0.7 -3.45,-4.52 -4.88,-5.95 -1.49,-1.49 -5.26,-4.36 -5.95,-4.89 -99.52,-2.65 -206.24,-3.29 -306.04,-1.93 -15.11,0.21 -28.58,2.24 -32.49,9.26 -4.65,8.34 -4.98,321.95 0.18,337.82 5.46,6.22 -0.5,3.46 8.32,3.54z"/>
  </g>
 </g>
</svg>
