<?xml version="1.0" encoding="UTF-8"?>
<!DOCTYPE svg PUBLIC "-//W3C//DTD SVG 1.1//EN" "http://www.w3.org/Graphics/SVG/1.1/DTD/svg11.dtd">
<!-- Creator: CorelDRAW 2019 (64-Bit) -->
<svg xmlns="http://www.w3.org/2000/svg" xml:space="preserve" width="52mm" height="52mm" version="1.1" style="shape-rendering:geometricPrecision; text-rendering:geometricPrecision; image-rendering:optimizeQuality; fill-rule:evenodd; clip-rule:evenodd"
viewBox="0 0 5200 5200"
 xmlns:xlink="http://www.w3.org/1999/xlink"
 xmlns:xodm="http://www.corel.com/coreldraw/odm/2003">
 <defs>
  <style type="text/css">
   <![CDATA[
    .fil0 {fill:#FEFEFE}
   ]]>
  </style>
 </defs>
 <g id="Layer_x0020_1">
  <metadata id="CorelCorpID_0Corel-Layer"/>
  <g id="_5593505792">
   <path class="fil0" d="M101.76 5051.7c-4.63,24.71 15.84,40.16 39.32,39.83 538.8,-0.02 1077.6,-0.48 1616.38,-0.06 75.79,0.07 150.35,20.56 168.85,-52.46l1.63 -1643.49c1.24,-90.06 14.28,-118.97 -82.04,-124.53 -293.83,-17.01 -1527.99,-11.2 -1693.63,-3.56 -73.72,21.88 -51.35,97.3 -51.29,178.13l0.78 1606.14zm118.66 -81.88l3.93 -1582.12 1580.79 2.95 0.88 1569.65c-48.08,13.74 -1513.61,-0.1 -1585.6,9.52z"/>
   <path class="fil0" d="M1777.37 223.19l26.5 2.7 1.27 1578.44 -1581.13 8.18 -3.61 -43.04 0.09 -1544.26 1546.91 -2.49 9.97 0.47zm-1627.6 1704.53c287.28,12.38 599.22,1.13 889.29,1.42 100.21,0.07 836.65,15.71 870.13,-17.87 40.07,-40.19 17.96,-345.5 17.96,-421.08 0.04,-415.01 13.13,-952.57 -1.39,-1340.55 -24.96,-51.03 -56.19,-46.21 -188.27,-46.19l-678.47 0.08c-305.33,-0.03 -612.89,-3.62 -917.94,0.52 -29.67,-5.58 -42.6,10.22 -39.28,39.4l0.12 1725.89c12.53,68.92 13.91,52.39 47.85,58.38z"/>
   <path class="fil0" d="M2777.85 1762.88l-4.59 42.39 -115.38 -1.26 -0.61 -134.29c-0.64,-58.92 -2.15,-99.17 -62.71,-106.23 -37.05,-4.33 -98.84,-0.26 -138.69,-0.54l-43.28 0.1c5.81,-201.61 22.29,-244.97 -105.93,-244.53 -83.57,0.3 -232.02,-28.61 -259.3,52.02l-0.71 677.8c-93.4,0.32 -292.45,-11.98 -408.63,0.77 -48.87,5.37 -79.23,-2.87 -82.83,41.11 -8.07,98.68 -11.24,223.26 18.07,312.5 155.78,48.19 529.47,-0.09 704.78,10.05 37.72,0.64 12.96,182.65 15.68,214.68 23.13,20.15 53.28,29.91 86.27,34.11 102.36,13.09 378,1.44 484.97,-4.88 28.54,3.61 38.91,-12.58 43.48,-23.83 0.22,-130.83 -5.62,-310.13 -5.36,-459.08 57.39,4.23 146.49,12.25 193.06,-4.56 31.16,-10.88 41.09,-25.59 43.12,-27.38 21.27,-147.16 5.36,-421.32 5.26,-581.8 -0.05,-78.29 26.77,-220.16 -51.53,-238.14 -40.4,-9.26 -245.95,-6.52 -280.57,3.74 -53.18,42.05 -34.44,126.57 -34.43,204.48 0.02,77.57 0.06,155.18 -0.14,232.77zm-604.85 330.53l1.73 -650.29 111.46 2.18c-9.06,293.39 -5.55,225.88 229.67,241.31 64.46,38.17 -41.31,220.56 70.7,241.16 51.24,9.42 242.75,2.19 293.1,-5.87l22.66 -27.62 1.67 -449.56 113.09 -1.76c-0.14,57.67 1.02,599.77 -3.26,606.56 -42.59,-1.17 -86.68,-1.31 -129.33,-1.12 -61.83,0.28 -90.07,-1.62 -103.49,55.31 -24.52,104.02 4.16,311.76 -5.11,432.33l-365.22 0.95c4.85,-45.24 2.63,-93.23 2.87,-139.48 0.3,-48.27 -13.36,-104.69 -64.18,-104.89l-660.51 -2.59 -1.23 -116c54.26,2.19 420.18,13.13 435.46,-7.13 43.7,-11.02 49.83,-37.85 49.92,-73.49z"/>
   <path class="fil0" d="M3265.68 153.38c-14.98,378.55 -1.39,918.73 -1.35,1326.85 0,36.24 -8.69,382.17 7.4,410.72 8.99,15.9 11.48,28.98 30.24,25.42 32.19,23.09 1552.29,20.68 1732.83,11.08 44.94,-10.91 52.79,-27.84 55.34,-78.05l-4.28 -1744.84 -1582.25 -1.21c-70.25,-0.01 -220.21,-17.5 -237.93,50.03zm1705.73 1609.9l0.17 42.64 -14.02 1.7 -1568.84 -1.97 -2.97 -1579.28 1584.58 -2.7 0.72 867.41 0.36 672.2z"/>
   <path class="fil0" d="M1192.95 2421.56l124.79 -4.52c-2.83,80.06 -10.34,173.68 18.59,231.58 35.45,9.35 79.11,11.34 121.84,10.43 121.07,-2.6 99.68,-9.96 102.79,28.26l-0.62 331.05 -118.22 -0.49c3.06,-32.2 11.97,-174.72 -5.19,-187.92 -28.33,-79.09 -142.31,-49.56 -228.36,-49.94 -74.19,-0.33 -99.23,-13.35 -132.08,38.94l-8.48 198.36 -841.76 2.03 -0.51 -358.78 111.11 -0.79c-4.83,128.22 2.37,120.89 17.99,228.98 73.44,21.97 265.94,24.72 340.4,2.72 28.84,-62.45 14.66,-413.11 14.66,-513.34 -0.99,-56.83 0.56,-66.35 -40.28,-80.05 -44.47,-26.98 -365.38,-10.61 -444.79,-9.34l0.48 -113.99 606.06 3.58c-0.87,46.77 -6.49,396.61 5,442.73l8.61 25.12c67.11,3.91 188.51,14.83 268.04,12.7 51.89,-1.38 84.69,-42.9 84.6,-100.55 -0.07,-44.9 3.45,-93.98 -4.67,-136.77zm440.86 117.75c-28.15,-23.77 -144.71,-10.31 -188.65,-4.42 3.35,-36.98 -12.07,-161.96 -8.2,-194.62 1.74,-36.02 -15.89,-41.03 -36.26,-41.67l-291.75 -4.35c-35.46,1.88 -36.04,20.56 -36.28,103.38 -0.12,38.57 0.52,115.34 0.1,137.62l-118.81 -2.09 -4.31 -416.34c-0.37,-35.92 5,-39.21 -26.84,-59.12 -55.46,-18.12 -683.09,-12 -781.73,-6.71 -67.89,51.49 -59.65,336.33 -2.47,358.68 47.78,18.67 361.35,-2.86 448.77,8.79l-0.33 358.63c-11.96,1.63 -42.55,4.92 -56.34,4.63 -37.5,-1.31 -63.14,0.41 -64.72,-24.49 0.39,-81.35 18.54,-167.92 -33.54,-214.48 -48.63,-15.11 -186.63,-9.07 -265.23,-6.49 -74.87,2.47 -66.87,64.95 -66.44,120.94l0.13 359.47c-0.48,64.23 -10.5,107.25 48.86,127.43l989.1 -0.45c41.35,-11.17 45.2,-45.25 49.81,-88.13 5.07,-47.15 8.68,-104.99 7.8,-154.8l121.42 2.64c-1.71,46.62 -0.67,103.53 3.85,150.55 4.78,49.68 14.45,88.37 65.91,92.35 55.44,4.29 147.58,5.77 216.68,-1.7 84.07,-9.09 71.96,-13.78 80.13,-98.82 15.92,-165.74 18.24,-483.43 -50.66,-506.43z"/>
   <path class="fil0" d="M2651.19 1164.69l6.2 -451.53 120.03 -1.66 6.64 452.58c19.36,46.66 76.84,35.7 140.79,35.39 36.53,-0.18 147.21,4.33 174.77,-4.45 79.23,-25.26 44.77,-235.86 44.73,-313.38 -0.06,-242.44 2.18,-485.94 -0.6,-728.23 -6.58,-19.3 -20.42,-34.17 -36.96,-42.84 -27.04,-14.17 -232.6,-9.9 -262.32,-7.36 -98.01,8.34 -66.42,151.26 -66.46,243.95l-127.01 -2.59c10.93,-49.78 8.73,-109.81 6.42,-162.03 -4.67,-106.23 -71.44,-77.83 -241.57,-79.24 -94.09,6.46 -122.94,-6.71 -120.84,73.27l-4.73 409.08c-75.43,14.04 -154.65,-6.06 -225.64,15.46 -34.1,68.35 -19.68,194.89 -17.48,280.56 7.67,53.09 21.44,68.37 59.98,75.83 47.02,9.08 123.67,3.36 180.17,-0.06l2.67 207.25c1.15,-0.9 -4.67,27.07 30.73,34.66 62.76,13.46 293.16,12.52 330.48,-34.66zm241.26 -736.6c29.92,-14.04 12.37,-164.27 11.57,-201.3l0.94 -0.04 113.68 0.77 -2 844.13 -111.81 -0.84c2.45,-81.81 14.84,-389.67 -8.57,-441.52 -26.58,-37.91 -9.07,-25.3 -51.14,-37.88 -66.1,-8.69 -234.4,-7.68 -292.87,8.48 -50.34,97.5 2.87,345.18 -22.1,475.37l-110.49 0.29c-18.54,-62.09 19.15,-182.32 -22.76,-224.45 -34.99,-35.19 -170.12,-11.04 -225.74,-22.56l0.19 -112.93c148.83,-23.79 243.43,62.14 241.91,-122.95 -0.86,-102.95 -9.68,-270.86 2.89,-366.81l116.09 0.67c8.24,85.93 -27.47,214.51 47.31,231.82 29.94,22.94 119.49,9.83 165.77,9.94 74.21,0.19 125.64,15.08 147.13,-40.19z"/>
   <path class="fil0" d="M4238.58 4070.6l-0.16 492.25 1.92 9.97c48.82,45.62 59.32,33.68 131.32,33.07 63.22,-0.52 126.33,0.36 189.58,-0.79 64.61,-36.92 42.98,-93.1 42.92,-240 81.49,-11.17 143.92,2.93 185.08,-2.55 54.4,-7.22 56.29,-47.69 56.67,-90.3 0.45,-50.88 -0.34,-127.38 7.77,-152.65l196.49 -1.08c32.87,-19.1 25.8,-8.15 38.19,-47.76l1.7 -231.71c0.27,-36.92 -9.43,-60.55 -39.89,-84.89 -132.66,-7.25 -275.2,-1.69 -409.07,-2.34 -69.07,-0.36 -140.17,-14.43 -156.31,45.92 -8.47,31.7 -3.34,155.84 -3.27,197.16l-161.44 3.52c-62.61,1.36 -81.46,0.14 -81.5,72.18zm482.18 -4.47c-8.64,49.47 -0.85,148.92 -0.41,172.16 -34.09,-1.19 -174.71,9.12 -193.9,8.71 -49.86,8.85 -45.61,31.6 -45.49,95.98 0.07,46.61 0.79,93.03 -0.03,139.91l-120.69 0.32 2.62 -364.23c40.59,-9.55 174.94,-9.34 212.73,-9.55 39.67,-44.3 17.43,-154.77 28.97,-224.91l36.51 -8.18 323.78 1.62 2.79 114.69c-70.19,9.22 -160.97,-8.27 -199.13,13.76 -36.82,2.86 -40.47,17.82 -47.75,59.72z"/>
   <path class="fil0" d="M2093.11 4246.64c-56.28,8.89 -47.42,61.52 -46.79,116.45l1.49 678.63 7.87 10.06c31.1,65.72 313.94,64.1 349.15,0 24.36,-31.67 4.09,-361.36 9.71,-429.07 0.78,-6.13 2.73,-21.05 31.4,-17.07l396.58 -0.08c48.72,-9.95 47.93,-10.14 55.17,-32.74 6.46,-96.21 2.57,-201.91 2.7,-299.24 0.07,-49.9 -0.13,-99.8 0.39,-149.69 0.79,-74.76 13.01,-99.67 -45.69,-122.12 -15.44,-16.23 -245.6,-5.97 -289.41,-6 -53.34,-0.01 -106.65,0.07 -159.99,-0.29 -74.69,-0.51 -115.77,1.51 -123.49,86.72 -4.6,50.69 4.52,127.1 5.82,155.91 -36.92,-2.07 -177.55,-11.18 -194.91,8.53zm196.87 294.98c-2.67,82.3 -4.92,358.46 -2.38,426.53l-115.44 -0.14 4.52 -606.39 203.45 -2.55c23.55,-2.15 44.98,-31.45 39.35,-43.17l-10.18 -197.54 369.06 0.36 -0.48 364.9 -451 12.8c-35.48,-0.56 -35.74,9.51 -36.9,45.2z"/>
   <path class="fil0" d="M3020.36 2594.62l1.29 511.68c41.53,48.34 48.64,40.74 132.61,40.12 63.37,-0.46 126.36,0.74 189.66,-1.85l31.15 -12.4c28.66,-107.81 13.6,-364.83 13.33,-494.75 -1.36,-70.72 1.31,-64.82 -34.5,-98.22 -62.9,-5.15 -126.35,-2.84 -189.56,-3.25 -53.29,-0.33 -144.16,-14.8 -143.98,58.67zm246.85 427.52l-119.02 0.07 -3.6 -362.58 118.2 -0.58 1.05 28.36 3.37 334.73z"/>
   <path class="fil0" d="M2552.32 4746.25c-33.3,39.9 -20.18,293.9 -11.44,310.38 14.53,27.37 22.17,24.32 56.11,31.13 69.15,13.9 233.73,3.97 278.01,3.97 166.83,-0.04 247.92,25.47 267.22,-57.42 8.46,-82.87 10.24,-232.12 -12.7,-297.03 -52.08,-13.52 -520.63,-23.54 -549.8,-0.36l-27.4 9.33zm104.95 110.25l362.48 -4.85c-1.34,44.08 4,76.07 -8.36,117.27l-353.51 -1.04 -0.61 -111.38z"/>
   <path class="fil0" d="M3750.05 2175.29l-359.44 2.3 1.73 110.85c20.65,-1.74 100.59,-1.59 151.99,3.53 52.14,5.2 79.33,6.59 79.99,71.9 0.55,58.71 0.09,105.73 3.62,173.36l30.35 -1.19 92.57 -0.69c9.66,-34.56 1.72,-357.74 -0.81,-360.06zm-176.54 483.59l259.34 -1.12c36.52,-28 40.36,-19.95 41.97,-89.41 1.06,-45.79 -0.47,-94.23 -0.46,-140.38 0.07,-93.08 0.63,-186.28 -0.01,-279.33 -0.16,-56.46 1.15,-71.62 -41.4,-91.16 -11.64,-17.24 -369.3,-12.19 -493.63,-7.95 -39.95,1.35 -50.43,4.66 -66.94,48.48 -25.41,67.37 -7.43,166.25 -2.44,234.52 4.07,55.6 16.37,75.1 71.91,83.15 51.47,7.45 133.75,-0.65 165.73,-1.45l5.07 206.08c18.29,24.05 24.61,34.87 60.86,38.57z"/>
   <path class="fil0" d="M3300.59 5079.31c9.42,5.99 6.09,5.77 24.46,9.78l458.68 2.97c116.26,-1.67 92.74,-69.64 91.08,-270.39 -0.55,-65.87 -4.55,-77.53 -41.88,-87.55 -36.38,-20.6 -157.65,-10.26 -200.25,-9.16l-0.76 -163.76c-2.1,-37.78 -7.45,-61.14 -48.91,-69.04 -23.45,-4.47 -61.84,-9.21 -129.28,-9.18 -59.16,0.02 -184,-16.57 -188.46,57.44 -6.92,85.58 -1.41,193.6 -1.28,281.87 0.1,68.61 -25.3,242.49 36.6,257.02zm230.59 -220l12.4 0.22 202.9 -3.13 1.05 108.76 -354.1 0.99 -8.05 -204.65 -3.24 -152.88 128.16 -4.61c17.28,22.65 -1.24,237.5 20.88,255.3z"/>
   <path class="fil0" d="M4563.27 3629.82l466.42 -2.63c43.77,-0.24 59.25,-25.22 60.01,-65.82 0.79,-41.92 0.35,-83.74 0.48,-125.8 0.2,-64.48 19.96,-146.95 -51.62,-168.01 -141.51,-7.5 -335.9,-7.57 -478.01,-2.15 -104.63,3.99 -84.5,95.17 -79.71,280.72 1.76,68.52 21.95,84.04 82.43,83.69zm407.13 -119.44l-364.8 0.89c-11.48,-37.67 -12.8,-82.9 -6.02,-122.16l367.44 -2.06 3.38 123.33z"/>
   <path class="fil0" d="M4841.2 4817.77c31.44,-51.08 16.08,-146.29 15.13,-208.63l107.9 -1.4 1.71 358.75 -358.97 -0.13 -0.68 -108.29c35.57,0.27 159.48,6.11 190.3,-5.96 20.97,-6.83 20.52,-4.14 44.61,-34.34zm-210.11 274.08l419.08 -1.18c21.09,11.76 43.6,-9.28 40.88,-38.97 1.6,-89.7 -0.91,-179.58 -0.83,-269.32 0.05,-43.21 -0.04,-86.47 0.11,-129.7 0.07,-22.74 1.34,-48.15 0.89,-70.36 -0.97,-47.82 -4.57,-69.79 -41.05,-98.26 -35.16,-0.85 -273.35,-10.45 -298.68,9.65 -56.55,44.9 -26.61,165.95 -25.85,233.35 -71.53,6.44 -252.09,-17.23 -242.06,47.07 -4.4,19.06 -2.29,66.14 -2.12,87.99 1.64,202.59 -42.78,230.93 149.63,229.73z"/>
   <path class="fil0" d="M4794.94 2534.61l168.58 -0.57 4.36 -118.53 -346.79 1.22 -23.46 2.13c-9.72,68.49 2.56,129.02 -7.31,187.79 -77.01,35.34 -368.07,12.74 -477.85,12.9l0.31 147.88c50.31,-1.02 337.47,3.23 426.05,11.2l45.57 15.67c25.92,36.45 20.47,111.59 19.5,224.42l122.1 5.84c-1.23,-71.6 -12.21,-278.76 -0.11,-395.31 7.75,-74.84 6.08,-70.11 69.05,-94.64zm281.77 -179.77l-0.91 292.97c-66.19,16.03 -151.9,12.42 -227.16,10.54l-6.94 440.75c-12.81,74.5 -220.96,50.56 -291.42,48.28 -26.66,-0.87 -39.35,-8.14 -67.74,-41.08l-0.14 -204.94c-136.08,-1.57 -255.58,-0.45 -413.06,0.68 -81.87,0.58 -76.45,-17.05 -82.26,-99.59 -6.81,-96.62 -6.64,-176.86 7.79,-272.74 79.48,-52.64 440.13,-22.81 466.61,-18.52l0.03 -19.95c0.23,-53.52 6.31,-103.82 2.82,-151.3 -2.32,-31.56 17.67,-50.76 60.8,-49.84 120.82,2.58 370.42,-6.64 483.05,0.48 53.03,3.36 68.71,5.16 68.53,64.26z"/>
   <path class="fil0" d="M3395.97 4041.25c-20.65,-42.15 -13.2,-20.24 -49.9,-35.75 -26.06,-21.05 -160.14,-9.31 -206.58,-10.8 8.97,-47.47 6.16,-101.42 5.47,-150.83 -0.81,-59.79 -4.81,-76.8 -57.03,-87.55 -18.23,-18.08 -810.91,-9.56 -911.34,-6.42l0.1 -841.61 107.56 1.63 -1.22 198.55c18.89,47.01 68.64,38.45 132.79,38.08 52.12,-0.29 109.3,2.14 160.59,0.03 130.42,-5.33 62.82,-135.56 84.89,-243.43l113.97 -6.25 2.03 369.3c-80.96,10.74 -401.78,-11.74 -444.2,0.27 -12.22,4.06 -27.7,18.4 -35.7,32.03 -14.73,27 -6.63,269.5 -1.58,296.68 18.94,14.97 54.16,38.32 109.84,35.2 197.61,-11.11 672.37,10.45 861.55,2.77 123.29,-5 104.01,1.62 113.51,-95.4 4.58,-46.8 10.77,-108.53 8.1,-147.1l144.23 1.73c-1.84,31.45 -10.35,108.69 -3.88,157.07 11.61,86.89 28.83,83.32 103.91,82.71 114.37,-12.28 254.02,18.33 240.78,-62.78l1.34 -178.45 114.34 -0.99 5.74 175.37 5.84 33.17c12.13,33.43 36.52,24.25 71.54,33.25 12.2,1.57 36.17,0.95 49.3,0.81 154.51,-1.59 103.05,-0.8 115.8,22.47l4.18 96.15 -458.2 0.1c-12.06,14.64 -25.84,18.29 -26.7,44.62 -3.9,119.55 -2.45,351.17 -6.47,438.45l-357.31 1.96 2.71 -195.04zm468.45 282.27l9.8 -19.94 0.24 -419.06c122.33,-7.37 265.97,4.28 360.19,-13.27 83.23,-15.5 126.5,-13.39 125.69,-136.32 -0.25,-39.94 4.52,-101.06 -0.01,-143.89 -5.74,-54.54 -2.71,-68.72 -56.57,-78.86 -55.63,-10.48 -105.58,8.17 -171.58,-6.07l-22.48 -3.91c7.35,-50.83 2.62,-133.25 3.72,-189.21 0.77,-39.25 -5.52,-34.3 -45.85,-40.38 -81.65,-12.32 -244.29,-17.75 -289.94,3.28 -42.69,48.79 -29.19,154.3 -26.76,232.61l-124.16 1.33c4.6,-38.88 7.05,-118.98 -1.13,-168.18 -6.27,-37.71 14.46,-69.6 -27.25,-76.65 -34.92,-3.69 -265.26,-2.9 -290.76,4.58 -27.87,8.18 -28.97,36.33 -34.06,71.67 -7.79,54.15 -9.39,125.27 -9.04,167.53l-855.04 0.83 8.69 -123.56c75.5,-1.11 301.16,-6.39 387,3.72 103.53,0.75 89.56,-50.07 95.07,-104.66 13.63,-134.95 -2.27,-439.98 -13.2,-478.24 -17.28,-23.53 -10.91,-23.88 -52.26,-27.3 -53.1,-4.37 -262.09,-25.2 -276.59,26.09 -15,53.09 -3.76,180.5 -13.75,215.56 -61.24,2.75 -103.85,8.89 -129.52,-14.57 -2.76,-26 -1.85,-60.51 -1.51,-89.79 0.68,-58.92 11.26,-114.8 -47.28,-136.75 -77.19,-0.03 -283.19,-30.49 -305.74,37.78 -25.77,32.32 -14.06,79.55 -13.79,118.85l1.29 887.85c13.11,46.06 46.38,50.58 100.01,51.61l810.99 -0.07 60.49 1.68c1.8,46.73 0.62,91.58 0.48,136.79 -0.26,73.74 -5.08,77.57 54.69,101.97 52.44,10 150.3,-19.97 187.51,17.3 4.31,32.03 -7.22,176.34 11.57,189.65 28.95,49 42.39,39.28 110,38.58 46.66,-0.51 93.33,-0.35 139.99,-0.39 99.75,-0.06 199.54,0.27 299.29,-0.42l10.09 -7.33c28.85,-13.2 17.14,-1.98 31.47,-30.44z"/>
   <path class="fil0" d="M463.05 1563.1l1.89 -1092.32 1063.47 -0.72c35.94,9.1 10.41,-8.84 29.43,22.46l-0.49 1069.3 -1067.15 1.08 -27.15 0.2zm1219.8 80.59c10.45,-374.89 14.91,-788.95 4.08,-1164.68 -1.69,-58.35 -9.25,-110.25 -31.91,-123.02 -23.63,-13.28 -1261.53,-23.76 -1293.29,8.05 -32.91,33.01 -16.83,545.23 -16.83,637.32 0,82.23 -7.8,616.06 5.86,649.28 25.64,62.39 213.31,34.97 289.17,35.04 319.9,0.18 689.68,7.77 998.83,-0.65l44.01 -0.75 0.08 -40.59z"/>
   <path class="fil0" d="M3508.43 1643.68l4.38 -1250.94c14.18,-38.85 27.76,-41.59 29,-42.75 190.17,-18.46 461.35,-2.86 660.27,-2.86 100.74,0 598.04,-23.24 631.98,22.12 23.45,31.4 16.08,1256.89 5.05,1272.41 -9.1,29.31 -5.02,38.35 -50.57,43.7 -19.53,2.28 -56.2,0.4 -77.42,0.32 -374.16,-1.59 -801.64,9.72 -1160.74,-0.34 -16.28,-11.07 -39.6,-38.56 -41.95,-41.66zm1013.44 -83.99l-890.02 -0.95 -1.61 -1066.22 -3.53 -24.14 1114.06 -1.41 6.2 992.83c-2.28,133.91 -25.64,78.6 -225.1,99.89z"/>
   <path class="fil0" d="M465.84 3628.55l24.36 3.58 1070.12 -3.24 0.57 1073.72c-22.93,30.36 -0.31,16.36 -42.46,24.95l-1055.42 -0.92 2.83 -1098.09zm-79.82 1208.26c25.77,24 972.74,9.76 1162.06,11.13 80.61,0.56 106.73,18.12 130.17,-45.56l4.7 -1251.05c-2.02,-2.65 -13.14,-17.2 -18.59,-22.65 -5.65,-5.66 -20,-16.57 -22.64,-18.59 -378.65,-10.07 -784.68,-12.54 -1164.42,-7.34 -57.48,0.78 -108.75,8.53 -123.63,35.21 -17.68,31.77 -18.95,1224.96 0.71,1285.35 20.77,23.69 -1.91,13.19 31.64,13.5z"/>
  </g>
 </g>
</svg>
